<svg width="662" height="330" viewBox="0 0 662 330" fill="none" xmlns="http://www.w3.org/2000/svg">
<path d="M0 16C0 7.16345 7.16344 0 16 0H646C654.837 0 662 7.16344 662 16V314C662 322.837 654.837 330 646 330H16C7.16346 330 0 322.837 0 314V16Z" fill="#F7F9FB"/>
<path d="M24.5568 31.3643V29.8182H32.6804V31.3643H29.5334V40H27.7038V31.3643H24.5568ZM36.3904 40.1491C35.6447 40.1491 34.9984 39.9851 34.4515 39.657C33.9047 39.3288 33.4804 38.8698 33.1788 38.2798C32.8805 37.6899 32.7314 37.0005 32.7314 36.2116C32.7314 35.4228 32.8805 34.7318 33.1788 34.1385C33.4804 33.5452 33.9047 33.0845 34.4515 32.7564C34.9984 32.4283 35.6447 32.2642 36.3904 32.2642C37.1362 32.2642 37.7825 32.4283 38.3294 32.7564C38.8762 33.0845 39.2988 33.5452 39.5971 34.1385C39.8987 34.7318 40.0495 35.4228 40.0495 36.2116C40.0495 37.0005 39.8987 37.6899 39.5971 38.2798C39.2988 38.8698 38.8762 39.3288 38.3294 39.657C37.7825 39.9851 37.1362 40.1491 36.3904 40.1491ZM36.4004 38.7074C36.8047 38.7074 37.1428 38.5964 37.4146 38.3743C37.6864 38.1489 37.8886 37.8473 38.0211 37.4695C38.157 37.0916 38.225 36.6707 38.225 36.2067C38.225 35.7393 38.157 35.3168 38.0211 34.9389C37.8886 34.5578 37.6864 34.2545 37.4146 34.0291C37.1428 33.8037 36.8047 33.6911 36.4004 33.6911C35.9861 33.6911 35.6414 33.8037 35.3663 34.0291C35.0945 34.2545 34.8907 34.5578 34.7548 34.9389C34.6222 35.3168 34.5559 35.7393 34.5559 36.2067C34.5559 36.6707 34.6222 37.0916 34.7548 37.4695C34.8907 37.8473 35.0945 38.1489 35.3663 38.3743C35.6414 38.5964 35.9861 38.7074 36.4004 38.7074ZM45.3903 32.3636V33.7557H41.0004V32.3636H45.3903ZM42.0842 30.5341H43.8839V37.7031C43.8839 37.9451 43.9203 38.1307 43.9933 38.2599C44.0695 38.3859 44.1689 38.4721 44.2915 38.5185C44.4142 38.5649 44.5501 38.5881 44.6992 38.5881C44.8119 38.5881 44.9147 38.5798 45.0075 38.5632C45.1036 38.5466 45.1765 38.5317 45.2262 38.5185L45.5295 39.9254C45.4334 39.9586 45.2958 39.995 45.1168 40.0348C44.9412 40.0746 44.7257 40.0978 44.4705 40.1044C44.0198 40.1177 43.6138 40.0497 43.2525 39.9006C42.8912 39.7481 42.6045 39.5128 42.3924 39.1946C42.1836 38.8764 42.0808 38.4787 42.0842 38.0014V30.5341ZM49.6472 40.1342C49.0473 40.1342 48.5104 39.9801 48.0364 39.6719C47.5624 39.3636 47.1879 38.9162 46.9128 38.3295C46.6377 37.7429 46.5002 37.0303 46.5002 36.1918C46.5002 35.3433 46.6394 34.6274 46.9178 34.044C47.1995 33.4574 47.579 33.0149 48.0563 32.7166C48.5336 32.415 49.0655 32.2642 49.6522 32.2642C50.0996 32.2642 50.4675 32.3404 50.7559 32.4929C51.0442 32.642 51.2729 32.8227 51.4419 33.0348C51.611 33.2436 51.7419 33.4408 51.8347 33.6264H51.9093V32.3636H53.714V40H51.9441V38.7969H51.8347C51.7419 38.9825 51.6077 39.1797 51.432 39.3885C51.2563 39.594 51.0243 39.7696 50.736 39.9155C50.4476 40.0613 50.0847 40.1342 49.6472 40.1342ZM50.1493 38.6577C50.5305 38.6577 50.8553 38.5549 51.1238 38.3494C51.3922 38.1406 51.5961 37.8506 51.7353 37.4794C51.8745 37.1082 51.9441 36.6757 51.9441 36.1818C51.9441 35.688 51.8745 35.2588 51.7353 34.8942C51.5994 34.5296 51.3972 34.2462 51.1287 34.044C50.8636 33.8419 50.5371 33.7408 50.1493 33.7408C49.7483 33.7408 49.4135 33.8452 49.1451 34.054C48.8766 34.2628 48.6744 34.5511 48.5385 34.919C48.4026 35.2869 48.3347 35.7079 48.3347 36.1818C48.3347 36.6591 48.4026 37.085 48.5385 37.4595C48.6777 37.8307 48.8816 38.1241 49.15 38.3395C49.4218 38.5516 49.7549 38.6577 50.1493 38.6577ZM57.4315 29.8182V40H55.6317V29.8182H57.4315ZM69.2527 29.8182H71.0971V36.4702C71.0971 37.1993 70.9248 37.8407 70.5801 38.3942C70.2387 38.9477 69.7581 39.3802 69.1383 39.6918C68.5185 40 67.7943 40.1541 66.9657 40.1541C66.1338 40.1541 65.408 40 64.7882 39.6918C64.1684 39.3802 63.6878 38.9477 63.3464 38.3942C63.005 37.8407 62.8343 37.1993 62.8343 36.4702V29.8182H64.6788V36.3161C64.6788 36.7403 64.7716 37.1181 64.9572 37.4496C65.1461 37.781 65.4113 38.0412 65.7527 38.2301C66.094 38.4157 66.4984 38.5085 66.9657 38.5085C67.4331 38.5085 67.8374 38.4157 68.1788 38.2301C68.5235 38.0412 68.7886 37.781 68.9743 37.4496C69.1599 37.1181 69.2527 36.7403 69.2527 36.3161V29.8182ZM79.0579 34.3821L77.4173 34.5611C77.3709 34.3954 77.2897 34.2396 77.1737 34.0938C77.061 33.9479 76.9085 33.8303 76.7163 33.7408C76.524 33.6513 76.2887 33.6065 76.0103 33.6065C75.6358 33.6065 75.3209 33.6877 75.0657 33.8501C74.8138 34.0125 74.6895 34.223 74.6928 34.4815C74.6895 34.7036 74.7707 34.8842 74.9364 35.0234C75.1055 35.1626 75.3839 35.277 75.7717 35.3665L77.0742 35.6449C77.7968 35.8007 78.3337 36.0476 78.685 36.3857C79.0397 36.7237 79.2186 37.1662 79.2219 37.7131C79.2186 38.1937 79.0778 38.6179 78.7994 38.9858C78.5243 39.3504 78.1415 39.6354 77.6509 39.8409C77.1604 40.0464 76.5969 40.1491 75.9606 40.1491C75.0259 40.1491 74.2736 39.9536 73.7035 39.5625C73.1334 39.1681 72.7937 38.6196 72.6843 37.9169L74.4393 37.7479C74.5188 38.0926 74.6879 38.3527 74.9464 38.5284C75.2049 38.7041 75.5413 38.7919 75.9556 38.7919C76.3832 38.7919 76.7262 38.7041 76.9847 38.5284C77.2466 38.3527 77.3775 38.1357 77.3775 37.8771C77.3775 37.6584 77.293 37.4777 77.1239 37.3352C76.9582 37.1927 76.6997 37.0833 76.3484 37.0071L75.0458 36.7337C74.3133 36.5812 73.7714 36.3243 73.4201 35.9631C73.0688 35.5985 72.8948 35.1378 72.8981 34.581C72.8948 34.1103 73.0224 33.7027 73.2809 33.358C73.5427 33.0099 73.9057 32.7415 74.3697 32.5526C74.837 32.3603 75.3756 32.2642 75.9854 32.2642C76.8803 32.2642 77.5846 32.4548 78.0984 32.8359C78.6154 33.2171 78.9353 33.7325 79.0579 34.3821ZM84.0866 40.1491C83.321 40.1491 82.6598 39.9901 82.103 39.6719C81.5495 39.3504 81.1236 38.8963 80.8253 38.3097C80.527 37.7197 80.3778 37.0253 80.3778 36.2266C80.3778 35.4411 80.527 34.7517 80.8253 34.1584C81.1269 33.5618 81.5478 33.0978 82.0881 32.7663C82.6283 32.4316 83.263 32.2642 83.9922 32.2642C84.4628 32.2642 84.907 32.3404 85.3246 32.4929C85.7455 32.642 86.1167 32.8741 86.4382 33.1889C86.763 33.5038 87.0182 33.9048 87.2038 34.392C87.3894 34.8759 87.4822 35.4527 87.4822 36.1222V36.674H81.223V35.4609H85.7571C85.7538 35.1162 85.6792 34.8097 85.5334 34.5412C85.3875 34.2694 85.1837 34.0556 84.9219 33.8999C84.6634 33.7441 84.3617 33.6662 84.017 33.6662C83.6491 33.6662 83.326 33.7557 83.0476 33.9347C82.7692 34.1103 82.5521 34.3423 82.3963 34.6307C82.2438 34.9157 82.166 35.2289 82.1626 35.5703V36.6293C82.1626 37.0734 82.2438 37.4545 82.4062 37.7727C82.5687 38.0876 82.7957 38.3295 83.0874 38.4986C83.379 38.6643 83.7204 38.7472 84.1115 38.7472C84.3733 38.7472 84.6103 38.7107 84.8224 38.6378C85.0346 38.5616 85.2185 38.4505 85.3743 38.3047C85.5301 38.1589 85.6477 37.9782 85.7273 37.7628L87.4077 37.9517C87.3016 38.3958 87.0994 38.7836 86.8011 39.1151C86.5062 39.4432 86.1283 39.6984 85.6676 39.8807C85.2069 40.0597 84.6799 40.1491 84.0866 40.1491ZM89.0048 40V32.3636H90.7498V33.6364H90.8294C90.9686 33.1955 91.2072 32.8558 91.5453 32.6172C91.8867 32.3752 92.2761 32.2543 92.7136 32.2543C92.813 32.2543 92.9241 32.2592 93.0467 32.2692C93.1726 32.2758 93.277 32.2874 93.3599 32.304V33.9595C93.2837 33.933 93.1627 33.9098 92.997 33.8899C92.8346 33.8667 92.6771 33.8551 92.5247 33.8551C92.1966 33.8551 91.9016 33.9264 91.6397 34.0689C91.3812 34.2081 91.1774 34.402 91.0282 34.6506C90.8791 34.8991 90.8045 35.1858 90.8045 35.5107V40H89.0048ZM100.591 34.3821L98.9505 34.5611C98.9041 34.3954 98.8229 34.2396 98.7069 34.0938C98.5942 33.9479 98.4417 33.8303 98.2495 33.7408C98.0572 33.6513 97.8219 33.6065 97.5435 33.6065C97.169 33.6065 96.8541 33.6877 96.5989 33.8501C96.347 34.0125 96.2227 34.223 96.226 34.4815C96.2227 34.7036 96.3039 34.8842 96.4696 35.0234C96.6387 35.1626 96.9171 35.277 97.3049 35.3665L98.6074 35.6449C99.33 35.8007 99.8669 36.0476 100.218 36.3857C100.573 36.7237 100.752 37.1662 100.755 37.7131C100.752 38.1937 100.611 38.6179 100.333 38.9858C100.057 39.3504 99.6747 39.6354 99.1841 39.8409C98.6936 40.0464 98.1301 40.1491 97.4938 40.1491C96.5591 40.1491 95.8068 39.9536 95.2367 39.5625C94.6666 39.1681 94.3269 38.6196 94.2175 37.9169L95.9725 37.7479C96.052 38.0926 96.2211 38.3527 96.4796 38.5284C96.7381 38.7041 97.0745 38.7919 97.4888 38.7919C97.9164 38.7919 98.2594 38.7041 98.5179 38.5284C98.7798 38.3527 98.9107 38.1357 98.9107 37.8771C98.9107 37.6584 98.8262 37.4777 98.6571 37.3352C98.4914 37.1927 98.2329 37.0833 97.8816 37.0071L96.579 36.7337C95.8465 36.5812 95.3046 36.3243 94.9533 35.9631C94.602 35.5985 94.428 35.1378 94.4313 34.581C94.428 34.1103 94.5556 33.7027 94.8141 33.358C95.0759 33.0099 95.4389 32.7415 95.9029 32.5526C96.3702 32.3603 96.9088 32.2642 97.5186 32.2642C98.4135 32.2642 99.1178 32.4548 99.6316 32.8359C100.149 33.2171 100.468 33.7325 100.591 34.3821Z" fill="#1C1C1C"/>
<path d="M118.676 30.9119V29.8182H126.312V30.9119H123.111V40H121.878V30.9119H118.676ZM130.051 40.1591C129.362 40.1591 128.757 39.995 128.237 39.6669C127.719 39.3388 127.315 38.8797 127.023 38.2898C126.735 37.6998 126.591 37.0104 126.591 36.2216C126.591 35.4261 126.735 34.7318 127.023 34.1385C127.315 33.5452 127.719 33.0845 128.237 32.7564C128.757 32.4283 129.362 32.2642 130.051 32.2642C130.741 32.2642 131.344 32.4283 131.861 32.7564C132.381 33.0845 132.786 33.5452 133.074 34.1385C133.366 34.7318 133.511 35.4261 133.511 36.2216C133.511 37.0104 133.366 37.6998 133.074 38.2898C132.786 38.8797 132.381 39.3388 131.861 39.6669C131.344 39.995 130.741 40.1591 130.051 40.1591ZM130.051 39.1051C130.575 39.1051 131.006 38.9709 131.344 38.7024C131.682 38.4339 131.932 38.081 132.094 37.6435C132.257 37.206 132.338 36.732 132.338 36.2216C132.338 35.7112 132.257 35.2356 132.094 34.7947C131.932 34.3539 131.682 33.9976 131.344 33.7259C131.006 33.4541 130.575 33.3182 130.051 33.3182C129.527 33.3182 129.097 33.4541 128.759 33.7259C128.42 33.9976 128.17 34.3539 128.008 34.7947C127.845 35.2356 127.764 35.7112 127.764 36.2216C127.764 36.732 127.845 37.206 128.008 37.6435C128.17 38.081 128.42 38.4339 128.759 38.7024C129.097 38.9709 129.527 39.1051 130.051 39.1051ZM138.623 32.3636V33.358H134.666V32.3636H138.623ZM135.819 30.5341H136.993V37.8125C136.993 38.1439 137.041 38.3925 137.137 38.5582C137.236 38.7206 137.362 38.83 137.515 38.8864C137.671 38.9394 137.835 38.9659 138.007 38.9659C138.136 38.9659 138.242 38.9593 138.325 38.946C138.408 38.9295 138.474 38.9162 138.524 38.9062L138.763 39.9602C138.683 39.9901 138.572 40.0199 138.43 40.0497C138.287 40.0829 138.106 40.0994 137.888 40.0994C137.556 40.0994 137.231 40.0282 136.913 39.8857C136.598 39.7431 136.336 39.526 136.128 39.2344C135.922 38.9427 135.819 38.5748 135.819 38.1307V30.5341ZM143.19 40.1591C142.553 40.1591 141.992 39.9983 141.504 39.6768C141.017 39.352 140.636 38.8946 140.361 38.3047C140.086 37.7114 139.948 37.0104 139.948 36.2017C139.948 35.3996 140.086 34.7036 140.361 34.1136C140.636 33.5237 141.019 33.0679 141.509 32.7464C142 32.425 142.567 32.2642 143.21 32.2642C143.707 32.2642 144.1 32.3471 144.388 32.5128C144.68 32.6752 144.902 32.8608 145.054 33.0696C145.21 33.2751 145.331 33.4441 145.417 33.5767H145.517V32.3636H146.69V40H145.556V38.8267H145.417C145.331 38.9659 145.208 39.1416 145.049 39.3537C144.89 39.5625 144.663 39.7498 144.368 39.9155C144.073 40.0779 143.68 40.1591 143.19 40.1591ZM143.349 39.1051C143.82 39.1051 144.217 38.9825 144.542 38.7372C144.867 38.4886 145.114 38.1456 145.283 37.7081C145.452 37.2673 145.536 36.7585 145.536 36.1818C145.536 35.6117 145.454 35.1129 145.288 34.6854C145.122 34.2545 144.877 33.9197 144.552 33.6811C144.227 33.4392 143.826 33.3182 143.349 33.3182C142.852 33.3182 142.437 33.4458 142.106 33.701C141.778 33.9529 141.531 34.2959 141.365 34.7301C141.203 35.161 141.122 35.6449 141.122 36.1818C141.122 36.7254 141.204 37.2192 141.37 37.6634C141.539 38.1042 141.788 38.4555 142.116 38.7173C142.447 38.9759 142.858 39.1051 143.349 39.1051ZM150.175 29.8182V40H149.002V29.8182H150.175ZM156.42 40V29.8182H159.861C160.66 29.8182 161.313 29.9624 161.82 30.2507C162.33 30.5357 162.708 30.9219 162.953 31.4091C163.198 31.8963 163.321 32.4399 163.321 33.0398C163.321 33.6397 163.198 34.1849 162.953 34.6754C162.711 35.166 162.337 35.5571 161.83 35.8487C161.322 36.1371 160.673 36.2812 159.881 36.2812H157.415V35.1875H159.841C160.388 35.1875 160.827 35.093 161.158 34.9041C161.49 34.7152 161.73 34.46 161.879 34.1385C162.032 33.8137 162.108 33.4474 162.108 33.0398C162.108 32.6321 162.032 32.2675 161.879 31.946C161.73 31.6245 161.488 31.3726 161.153 31.1903C160.819 31.0047 160.375 30.9119 159.821 30.9119H157.653V40H156.42ZM165.148 40V32.3636H166.282V33.517H166.361C166.5 33.1392 166.752 32.8326 167.117 32.5973C167.481 32.362 167.892 32.2443 168.35 32.2443C168.436 32.2443 168.544 32.246 168.673 32.2493C168.802 32.2526 168.9 32.2576 168.966 32.2642V33.4574C168.926 33.4474 168.835 33.4325 168.693 33.4126C168.554 33.3894 168.406 33.3778 168.25 33.3778C167.879 33.3778 167.548 33.4557 167.256 33.6115C166.968 33.764 166.739 33.9761 166.57 34.2479C166.404 34.5163 166.321 34.8229 166.321 35.1676V40H165.148ZM173.227 40.1591C172.538 40.1591 171.933 39.995 171.412 39.6669C170.895 39.3388 170.491 38.8797 170.199 38.2898C169.911 37.6998 169.767 37.0104 169.767 36.2216C169.767 35.4261 169.911 34.7318 170.199 34.1385C170.491 33.5452 170.895 33.0845 171.412 32.7564C171.933 32.4283 172.538 32.2642 173.227 32.2642C173.916 32.2642 174.52 32.4283 175.037 32.7564C175.557 33.0845 175.961 33.5452 176.25 34.1385C176.541 34.7318 176.687 35.4261 176.687 36.2216C176.687 37.0104 176.541 37.6998 176.25 38.2898C175.961 38.8797 175.557 39.3388 175.037 39.6669C174.52 39.995 173.916 40.1591 173.227 40.1591ZM173.227 39.1051C173.751 39.1051 174.181 38.9709 174.52 38.7024C174.858 38.4339 175.108 38.081 175.27 37.6435C175.433 37.206 175.514 36.732 175.514 36.2216C175.514 35.7112 175.433 35.2356 175.27 34.7947C175.108 34.3539 174.858 33.9976 174.52 33.7259C174.181 33.4541 173.751 33.3182 173.227 33.3182C172.703 33.3182 172.272 33.4541 171.934 33.7259C171.596 33.9976 171.346 34.3539 171.184 34.7947C171.021 35.2356 170.94 35.7112 170.94 36.2216C170.94 36.732 171.021 37.206 171.184 37.6435C171.346 38.081 171.596 38.4339 171.934 38.7024C172.272 38.9709 172.703 39.1051 173.227 39.1051ZM178.478 32.3636H179.651V40.5568C179.651 41.0275 179.57 41.4351 179.408 41.7798C179.249 42.1245 179.007 42.3913 178.682 42.5803C178.36 42.7692 177.954 42.8636 177.464 42.8636C177.424 42.8636 177.384 42.8636 177.345 42.8636C177.305 42.8636 177.265 42.8636 177.225 42.8636V41.7699C177.265 41.7699 177.302 41.7699 177.335 41.7699C177.368 41.7699 177.404 41.7699 177.444 41.7699C177.802 41.7699 178.064 41.6638 178.23 41.4517C178.395 41.2429 178.478 40.9446 178.478 40.5568V32.3636ZM179.055 31.0909C178.826 31.0909 178.629 31.013 178.463 30.8572C178.301 30.7015 178.22 30.5142 178.22 30.2955C178.22 30.0767 178.301 29.8894 178.463 29.7337C178.629 29.5779 178.826 29.5 179.055 29.5C179.284 29.5 179.479 29.5779 179.642 29.7337C179.807 29.8894 179.89 30.0767 179.89 30.2955C179.89 30.5142 179.807 30.7015 179.642 30.8572C179.479 31.013 179.284 31.0909 179.055 31.0909ZM185.002 40.1591C184.266 40.1591 183.632 39.9967 183.098 39.6719C182.568 39.3438 182.158 38.8864 181.87 38.2997C181.585 37.7098 181.442 37.0237 181.442 36.2415C181.442 35.4593 181.585 34.7699 181.87 34.1733C182.158 33.5734 182.559 33.1061 183.073 32.7713C183.59 32.4332 184.193 32.2642 184.883 32.2642C185.281 32.2642 185.673 32.3305 186.061 32.4631C186.449 32.5956 186.802 32.8111 187.12 33.1094C187.438 33.4044 187.692 33.7955 187.881 34.2827C188.07 34.7699 188.164 35.3698 188.164 36.0824V36.5795H182.278V35.5653H186.971C186.971 35.1345 186.885 34.75 186.712 34.4119C186.543 34.0739 186.301 33.8071 185.987 33.6115C185.675 33.416 185.307 33.3182 184.883 33.3182C184.415 33.3182 184.011 33.4342 183.67 33.6662C183.332 33.8949 183.071 34.1932 182.889 34.5611C182.707 34.929 182.616 35.3234 182.616 35.7443V36.4205C182.616 36.9972 182.715 37.486 182.914 37.8871C183.116 38.2848 183.396 38.5881 183.754 38.7969C184.112 39.0024 184.528 39.1051 185.002 39.1051C185.31 39.1051 185.589 39.062 185.837 38.9759C186.089 38.8864 186.306 38.7538 186.489 38.5781C186.671 38.3991 186.812 38.1771 186.911 37.9119L188.045 38.2301C187.925 38.6146 187.725 38.9527 187.443 39.2443C187.161 39.5327 186.813 39.758 186.399 39.9205C185.985 40.0795 185.519 40.1591 185.002 40.1591ZM193.051 40.1591C192.335 40.1591 191.719 39.9901 191.202 39.652C190.685 39.3139 190.287 38.8482 190.009 38.255C189.73 37.6617 189.591 36.9839 189.591 36.2216C189.591 35.446 189.733 34.7616 190.018 34.1683C190.307 33.5717 190.708 33.1061 191.222 32.7713C191.739 32.4332 192.342 32.2642 193.031 32.2642C193.568 32.2642 194.052 32.3636 194.483 32.5625C194.914 32.7614 195.267 33.0398 195.542 33.3977C195.817 33.7557 195.988 34.1733 196.054 34.6506H194.881C194.791 34.3026 194.592 33.9943 194.284 33.7259C193.979 33.4541 193.568 33.3182 193.051 33.3182C192.594 33.3182 192.193 33.4375 191.848 33.6761C191.507 33.9115 191.24 34.2446 191.048 34.6754C190.859 35.103 190.764 35.6051 190.764 36.1818C190.764 36.7718 190.857 37.2855 191.043 37.723C191.232 38.1605 191.497 38.5002 191.838 38.7422C192.183 38.9841 192.587 39.1051 193.051 39.1051C193.356 39.1051 193.633 39.0521 193.881 38.946C194.13 38.84 194.34 38.6875 194.513 38.4886C194.685 38.2898 194.808 38.0511 194.881 37.7727H196.054C195.988 38.2235 195.824 38.6295 195.562 38.9908C195.303 39.3487 194.96 39.6338 194.533 39.8459C194.108 40.0547 193.615 40.1591 193.051 40.1591ZM201.09 32.3636V33.358H197.133V32.3636H201.09ZM198.286 30.5341H199.46V37.8125C199.46 38.1439 199.508 38.3925 199.604 38.5582C199.703 38.7206 199.829 38.83 199.982 38.8864C200.137 38.9394 200.301 38.9659 200.474 38.9659C200.603 38.9659 200.709 38.9593 200.792 38.946C200.875 38.9295 200.941 38.9162 200.991 38.9062L201.229 39.9602C201.15 39.9901 201.039 40.0199 200.896 40.0497C200.754 40.0829 200.573 40.0994 200.354 40.0994C200.023 40.0994 199.698 40.0282 199.38 39.8857C199.065 39.7431 198.803 39.526 198.594 39.2344C198.389 38.9427 198.286 38.5748 198.286 38.1307V30.5341ZM208.127 34.0739L207.074 34.3722C207.007 34.1965 206.909 34.0258 206.78 33.8601C206.654 33.6911 206.482 33.5518 206.263 33.4425C206.044 33.3331 205.764 33.2784 205.423 33.2784C204.956 33.2784 204.566 33.3861 204.255 33.6016C203.946 33.8137 203.792 34.0838 203.792 34.4119C203.792 34.7036 203.898 34.9339 204.11 35.103C204.323 35.272 204.654 35.4129 205.105 35.5256L206.238 35.804C206.921 35.9697 207.43 36.2232 207.765 36.5646C208.099 36.9027 208.267 37.3385 208.267 37.8722C208.267 38.3097 208.141 38.7008 207.889 39.0455C207.64 39.3902 207.292 39.6619 206.845 39.8608C206.397 40.0597 205.877 40.1591 205.284 40.1591C204.505 40.1591 203.86 39.9901 203.35 39.652C202.839 39.3139 202.516 38.8201 202.38 38.1705L203.494 37.892C203.6 38.303 203.801 38.6113 204.096 38.8168C204.394 39.0223 204.783 39.125 205.264 39.125C205.811 39.125 206.245 39.009 206.566 38.777C206.891 38.5417 207.054 38.2599 207.054 37.9318C207.054 37.6667 206.961 37.4446 206.775 37.2656C206.59 37.0833 206.305 36.9474 205.92 36.858L204.647 36.5597C203.948 36.3939 203.434 36.1371 203.106 35.7891C202.781 35.4377 202.619 34.9986 202.619 34.4716C202.619 34.0407 202.74 33.6596 202.982 33.3281C203.227 32.9967 203.56 32.7365 203.981 32.5476C204.405 32.3587 204.886 32.2642 205.423 32.2642C206.179 32.2642 206.772 32.4299 207.203 32.7614C207.637 33.0928 207.945 33.5303 208.127 34.0739Z" fill="#1C1C1C" fill-opacity="0.4"/>
<path d="M234.824 34.9091C234.824 35.983 234.63 36.911 234.242 37.6932C233.854 38.4754 233.322 39.0786 232.646 39.5028C231.97 39.9271 231.198 40.1392 230.33 40.1392C229.461 40.1392 228.689 39.9271 228.013 39.5028C227.337 39.0786 226.805 38.4754 226.417 37.6932C226.029 36.911 225.835 35.983 225.835 34.9091C225.835 33.8352 226.029 32.9072 226.417 32.125C226.805 31.3428 227.337 30.7396 228.013 30.3153C228.689 29.8911 229.461 29.679 230.33 29.679C231.198 29.679 231.97 29.8911 232.646 30.3153C233.322 30.7396 233.854 31.3428 234.242 32.125C234.63 32.9072 234.824 33.8352 234.824 34.9091ZM233.631 34.9091C233.631 34.0275 233.483 33.2834 233.188 32.6768C232.897 32.0703 232.5 31.6113 232 31.2997C231.503 30.9882 230.946 30.8324 230.33 30.8324C229.713 30.8324 229.155 30.9882 228.654 31.2997C228.157 31.6113 227.761 32.0703 227.466 32.6768C227.174 33.2834 227.028 34.0275 227.028 34.9091C227.028 35.7907 227.174 36.5348 227.466 37.1413C227.761 37.7479 228.157 38.2069 228.654 38.5185C229.155 38.83 229.713 38.9858 230.33 38.9858C230.946 38.9858 231.503 38.83 232 38.5185C232.5 38.2069 232.897 37.7479 233.188 37.1413C233.483 36.5348 233.631 35.7907 233.631 34.9091ZM236.738 42.8636V32.3636H237.871V33.5767H238.011C238.097 33.4441 238.216 33.2751 238.369 33.0696C238.524 32.8608 238.746 32.6752 239.035 32.5128C239.326 32.3471 239.721 32.2642 240.218 32.2642C240.861 32.2642 241.428 32.425 241.918 32.7464C242.409 33.0679 242.792 33.5237 243.067 34.1136C243.342 34.7036 243.479 35.3996 243.479 36.2017C243.479 37.0104 243.342 37.7114 243.067 38.3047C242.792 38.8946 242.411 39.352 241.923 39.6768C241.436 39.9983 240.874 40.1591 240.238 40.1591C239.747 40.1591 239.355 40.0779 239.06 39.9155C238.765 39.7498 238.538 39.5625 238.379 39.3537C238.219 39.1416 238.097 38.9659 238.011 38.8267H237.911V42.8636H236.738ZM237.891 36.1818C237.891 36.7585 237.976 37.2673 238.145 37.7081C238.314 38.1456 238.561 38.4886 238.886 38.7372C239.21 38.9825 239.608 39.1051 240.079 39.1051C240.569 39.1051 240.979 38.9759 241.307 38.7173C241.638 38.4555 241.887 38.1042 242.053 37.6634C242.222 37.2192 242.306 36.7254 242.306 36.1818C242.306 35.6449 242.223 35.161 242.058 34.7301C241.895 34.2959 241.648 33.9529 241.317 33.701C240.989 33.4458 240.576 33.3182 240.079 33.3182C239.602 33.3182 239.201 33.4392 238.876 33.6811C238.551 33.9197 238.306 34.2545 238.14 34.6854C237.974 35.1129 237.891 35.6117 237.891 36.1818ZM248.471 40.1591C247.735 40.1591 247.1 39.9967 246.567 39.6719C246.036 39.3438 245.627 38.8864 245.339 38.2997C245.054 37.7098 244.911 37.0237 244.911 36.2415C244.911 35.4593 245.054 34.7699 245.339 34.1733C245.627 33.5734 246.028 33.1061 246.542 32.7713C247.059 32.4332 247.662 32.2642 248.352 32.2642C248.749 32.2642 249.142 32.3305 249.53 32.4631C249.918 32.5956 250.271 32.8111 250.589 33.1094C250.907 33.4044 251.161 33.7955 251.349 34.2827C251.538 34.7699 251.633 35.3698 251.633 36.0824V36.5795H245.746V35.5653H250.44C250.44 35.1345 250.353 34.75 250.181 34.4119C250.012 34.0739 249.77 33.8071 249.455 33.6115C249.144 33.416 248.776 33.3182 248.352 33.3182C247.884 33.3182 247.48 33.4342 247.138 33.6662C246.8 33.8949 246.54 34.1932 246.358 34.5611C246.176 34.929 246.085 35.3234 246.085 35.7443V36.4205C246.085 36.9972 246.184 37.486 246.383 37.8871C246.585 38.2848 246.865 38.5881 247.223 38.7969C247.581 39.0024 247.997 39.1051 248.471 39.1051C248.779 39.1051 249.058 39.062 249.306 38.9759C249.558 38.8864 249.775 38.7538 249.957 38.5781C250.14 38.3991 250.281 38.1771 250.38 37.9119L251.513 38.2301C251.394 38.6146 251.194 38.9527 250.912 39.2443C250.63 39.5327 250.282 39.758 249.868 39.9205C249.454 40.0795 248.988 40.1591 248.471 40.1591ZM253.418 40V32.3636H254.551V33.517H254.631C254.77 33.1392 255.022 32.8326 255.386 32.5973C255.751 32.362 256.162 32.2443 256.619 32.2443C256.705 32.2443 256.813 32.246 256.942 32.2493C257.072 32.2526 257.17 32.2576 257.236 32.2642V33.4574C257.196 33.4474 257.105 33.4325 256.962 33.4126C256.823 33.3894 256.676 33.3778 256.52 33.3778C256.149 33.3778 255.817 33.4557 255.526 33.6115C255.237 33.764 255.009 33.9761 254.839 34.2479C254.674 34.5163 254.591 34.8229 254.591 35.1676V40H253.418ZM261.278 40.1591C260.641 40.1591 260.08 39.9983 259.592 39.6768C259.105 39.352 258.724 38.8946 258.449 38.3047C258.174 37.7114 258.036 37.0104 258.036 36.2017C258.036 35.3996 258.174 34.7036 258.449 34.1136C258.724 33.5237 259.107 33.0679 259.597 32.7464C260.088 32.425 260.655 32.2642 261.298 32.2642C261.795 32.2642 262.188 32.3471 262.476 32.5128C262.768 32.6752 262.99 32.8608 263.142 33.0696C263.298 33.2751 263.419 33.4441 263.505 33.5767H263.604V32.3636H264.778V40H263.644V38.8267H263.505C263.419 38.9659 263.296 39.1416 263.137 39.3537C262.978 39.5625 262.751 39.7498 262.456 39.9155C262.161 40.0779 261.768 40.1591 261.278 40.1591ZM261.437 39.1051C261.907 39.1051 262.305 38.9825 262.63 38.7372C262.955 38.4886 263.202 38.1456 263.371 37.7081C263.54 37.2673 263.624 36.7585 263.624 36.1818C263.624 35.6117 263.541 35.1129 263.376 34.6854C263.21 34.2545 262.965 33.9197 262.64 33.6811C262.315 33.4392 261.914 33.3182 261.437 33.3182C260.94 33.3182 260.525 33.4458 260.194 33.701C259.866 33.9529 259.619 34.2959 259.453 34.7301C259.291 35.161 259.21 35.6449 259.21 36.1818C259.21 36.7254 259.292 37.2192 259.458 37.6634C259.627 38.1042 259.876 38.4555 260.204 38.7173C260.535 38.9759 260.946 39.1051 261.437 39.1051ZM270.411 32.3636V33.358H266.453V32.3636H270.411ZM267.607 30.5341H268.78V37.8125C268.78 38.1439 268.828 38.3925 268.924 38.5582C269.023 38.7206 269.149 38.83 269.302 38.8864C269.458 38.9394 269.622 38.9659 269.794 38.9659C269.923 38.9659 270.029 38.9593 270.112 38.946C270.195 38.9295 270.261 38.9162 270.311 38.9062L270.55 39.9602C270.47 39.9901 270.359 40.0199 270.217 40.0497C270.074 40.0829 269.893 40.0994 269.675 40.0994C269.343 40.0994 269.018 40.0282 268.7 39.8857C268.385 39.7431 268.124 39.526 267.915 39.2344C267.709 38.9427 267.607 38.5748 267.607 38.1307V30.5341ZM272.175 40V32.3636H273.349V40H272.175ZM272.772 31.0909C272.543 31.0909 272.346 31.013 272.18 30.8572C272.018 30.7015 271.937 30.5142 271.937 30.2955C271.937 30.0767 272.018 29.8894 272.18 29.7337C272.346 29.5779 272.543 29.5 272.772 29.5C273.001 29.5 273.196 29.5779 273.359 29.7337C273.524 29.8894 273.607 30.0767 273.607 30.2955C273.607 30.5142 273.524 30.7015 273.359 30.8572C273.196 31.013 273.001 31.0909 272.772 31.0909ZM276.671 35.4062V40H275.498V32.3636H276.631V33.5568H276.731C276.91 33.169 277.181 32.8575 277.546 32.6222C277.911 32.3835 278.381 32.2642 278.958 32.2642C279.475 32.2642 279.927 32.3703 280.315 32.5824C280.703 32.7912 281.005 33.1094 281.22 33.5369C281.435 33.9612 281.543 34.4981 281.543 35.1477V40H280.37V35.2273C280.37 34.6274 280.214 34.16 279.903 33.8253C279.591 33.4872 279.163 33.3182 278.62 33.3182C278.245 33.3182 277.911 33.3994 277.616 33.5618C277.324 33.7242 277.094 33.9612 276.925 34.2727C276.756 34.5843 276.671 34.9621 276.671 35.4062ZM286.77 43.0227C286.203 43.0227 285.716 42.9498 285.308 42.804C284.9 42.6615 284.56 42.4725 284.289 42.2372C284.02 42.0052 283.806 41.7566 283.647 41.4915L284.582 40.8352C284.688 40.9744 284.822 41.1335 284.985 41.3125C285.147 41.4948 285.369 41.6522 285.651 41.7848C285.936 41.9207 286.309 41.9886 286.77 41.9886C287.386 41.9886 287.895 41.8395 288.296 41.5412C288.697 41.2429 288.897 40.7756 288.897 40.1392V38.5881H288.798C288.712 38.7273 288.589 38.8996 288.43 39.1051C288.274 39.3073 288.049 39.4879 287.754 39.647C287.462 39.8028 287.068 39.8807 286.571 39.8807C285.954 39.8807 285.401 39.7348 284.91 39.4432C284.423 39.1515 284.037 38.7273 283.752 38.1705C283.47 37.6136 283.329 36.9375 283.329 36.142C283.329 35.3598 283.467 34.6787 283.742 34.0987C284.017 33.5154 284.4 33.0646 284.89 32.7464C285.381 32.425 285.948 32.2642 286.591 32.2642C287.088 32.2642 287.482 32.3471 287.774 32.5128C288.069 32.6752 288.294 32.8608 288.45 33.0696C288.609 33.2751 288.732 33.4441 288.818 33.5767H288.937V32.3636H290.071V40.2188C290.071 40.875 289.922 41.4086 289.623 41.8196C289.328 42.2339 288.931 42.5372 288.43 42.7294C287.933 42.925 287.379 43.0227 286.77 43.0227ZM286.73 38.8267C287.2 38.8267 287.598 38.719 287.923 38.5036C288.248 38.2881 288.495 37.9782 288.664 37.5739C288.833 37.1695 288.917 36.6856 288.917 36.1222C288.917 35.572 288.834 35.0864 288.669 34.6655C288.503 34.2446 288.258 33.9148 287.933 33.6761C287.608 33.4375 287.207 33.3182 286.73 33.3182C286.233 33.3182 285.818 33.4441 285.487 33.696C285.159 33.9479 284.912 34.286 284.746 34.7102C284.584 35.1345 284.502 35.6051 284.502 36.1222C284.502 36.6525 284.585 37.1214 284.751 37.5291C284.92 37.9335 285.169 38.2517 285.497 38.4837C285.828 38.7124 286.239 38.8267 286.73 38.8267ZM301.883 32.3636C301.824 31.8598 301.582 31.4688 301.157 31.1903C300.733 30.9119 300.213 30.7727 299.596 30.7727C299.145 30.7727 298.751 30.8456 298.413 30.9915C298.078 31.1373 297.816 31.3378 297.627 31.593C297.442 31.8482 297.349 32.1383 297.349 32.4631C297.349 32.7348 297.414 32.9685 297.543 33.1641C297.676 33.3563 297.845 33.517 298.05 33.6463C298.256 33.7723 298.471 33.8767 298.696 33.9595C298.922 34.0391 299.129 34.1037 299.318 34.1534L300.352 34.4318C300.617 34.5014 300.912 34.5975 301.237 34.7202C301.565 34.8428 301.878 35.0102 302.176 35.2223C302.478 35.4311 302.727 35.6996 302.922 36.0277C303.118 36.3558 303.216 36.7585 303.216 37.2358C303.216 37.786 303.071 38.2831 302.783 38.7273C302.498 39.1714 302.08 39.5244 301.53 39.7862C300.983 40.0481 300.319 40.179 299.537 40.179C298.807 40.179 298.176 40.0613 297.642 39.826C297.112 39.5907 296.694 39.2625 296.39 38.8416C296.088 38.4207 295.917 37.9318 295.877 37.375H297.15C297.183 37.7595 297.313 38.0777 297.538 38.3295C297.767 38.5781 298.055 38.7637 298.403 38.8864C298.754 39.0057 299.132 39.0653 299.537 39.0653C300.007 39.0653 300.43 38.9891 300.804 38.8366C301.179 38.6809 301.475 38.4654 301.694 38.1903C301.913 37.9119 302.022 37.5871 302.022 37.2159C302.022 36.8778 301.928 36.6027 301.739 36.3906C301.55 36.1785 301.301 36.0062 300.993 35.8736C300.685 35.741 300.352 35.625 299.994 35.5256L298.741 35.1676C297.946 34.9389 297.316 34.6125 296.852 34.1882C296.388 33.764 296.156 33.2088 296.156 32.5227C296.156 31.9527 296.31 31.4555 296.618 31.0312C296.93 30.6037 297.347 30.2723 297.871 30.0369C298.398 29.7983 298.986 29.679 299.636 29.679C300.292 29.679 300.876 29.7966 301.386 30.032C301.896 30.264 302.301 30.5821 302.599 30.9865C302.901 31.3909 303.06 31.8499 303.076 32.3636H301.883ZM308.405 32.3636V33.358H304.447V32.3636H308.405ZM305.601 30.5341H306.774V37.8125C306.774 38.1439 306.822 38.3925 306.918 38.5582C307.018 38.7206 307.144 38.83 307.296 38.8864C307.452 38.9394 307.616 38.9659 307.788 38.9659C307.917 38.9659 308.023 38.9593 308.106 38.946C308.189 38.9295 308.256 38.9162 308.305 38.9062L308.544 39.9602C308.464 39.9901 308.353 40.0199 308.211 40.0497C308.068 40.0829 307.888 40.0994 307.669 40.0994C307.337 40.0994 307.013 40.0282 306.694 39.8857C306.38 39.7431 306.118 39.526 305.909 39.2344C305.703 38.9427 305.601 38.5748 305.601 38.1307V30.5341ZM312.971 40.1591C312.335 40.1591 311.773 39.9983 311.286 39.6768C310.798 39.352 310.417 38.8946 310.142 38.3047C309.867 37.7114 309.73 37.0104 309.73 36.2017C309.73 35.3996 309.867 34.7036 310.142 34.1136C310.417 33.5237 310.8 33.0679 311.291 32.7464C311.781 32.425 312.348 32.2642 312.991 32.2642C313.488 32.2642 313.881 32.3471 314.169 32.5128C314.461 32.6752 314.683 32.8608 314.835 33.0696C314.991 33.2751 315.112 33.4441 315.198 33.5767H315.298V32.3636H316.471V40H315.338V38.8267H315.198C315.112 38.9659 314.99 39.1416 314.83 39.3537C314.671 39.5625 314.444 39.7498 314.149 39.9155C313.854 40.0779 313.462 40.1591 312.971 40.1591ZM313.13 39.1051C313.601 39.1051 313.999 38.9825 314.323 38.7372C314.648 38.4886 314.895 38.1456 315.064 37.7081C315.233 37.2673 315.318 36.7585 315.318 36.1818C315.318 35.6117 315.235 35.1129 315.069 34.6854C314.903 34.2545 314.658 33.9197 314.333 33.6811C314.008 33.4392 313.607 33.3182 313.13 33.3182C312.633 33.3182 312.219 33.4458 311.887 33.701C311.559 33.9529 311.312 34.2959 311.146 34.7301C310.984 35.161 310.903 35.6449 310.903 36.1818C310.903 36.7254 310.986 37.2192 311.151 37.6634C311.32 38.1042 311.569 38.4555 311.897 38.7173C312.229 38.9759 312.64 39.1051 313.13 39.1051ZM322.104 32.3636V33.358H318.146V32.3636H322.104ZM319.3 30.5341H320.473V37.8125C320.473 38.1439 320.521 38.3925 320.617 38.5582C320.717 38.7206 320.843 38.83 320.995 38.8864C321.151 38.9394 321.315 38.9659 321.487 38.9659C321.617 38.9659 321.723 38.9593 321.806 38.946C321.888 38.9295 321.955 38.9162 322.004 38.9062L322.243 39.9602C322.164 39.9901 322.052 40.0199 321.91 40.0497C321.767 40.0829 321.587 40.0994 321.368 40.0994C321.037 40.0994 320.712 40.0282 320.394 39.8857C320.079 39.7431 319.817 39.526 319.608 39.2344C319.403 38.9427 319.3 38.5748 319.3 38.1307V30.5341ZM328.681 36.8778V32.3636H329.855V40H328.681V38.7074H328.602C328.423 39.0952 328.144 39.425 327.767 39.6967C327.389 39.9652 326.911 40.0994 326.335 40.0994C325.857 40.0994 325.433 39.995 325.062 39.7862C324.691 39.5741 324.399 39.2559 324.187 38.8317C323.975 38.4041 323.869 37.8655 323.869 37.2159V32.3636H325.042V37.1364C325.042 37.6932 325.198 38.1373 325.509 38.4688C325.824 38.8002 326.225 38.9659 326.713 38.9659C327.004 38.9659 327.301 38.8913 327.602 38.7422C327.907 38.593 328.163 38.3643 328.368 38.0561C328.577 37.7479 328.681 37.3551 328.681 36.8778ZM337.413 34.0739L336.359 34.3722C336.292 34.1965 336.195 34.0258 336.065 33.8601C335.939 33.6911 335.767 33.5518 335.548 33.4425C335.33 33.3331 335.049 33.2784 334.708 33.2784C334.241 33.2784 333.851 33.3861 333.54 33.6016C333.232 33.8137 333.077 34.0838 333.077 34.4119C333.077 34.7036 333.183 34.9339 333.396 35.103C333.608 35.272 333.939 35.4129 334.39 35.5256L335.523 35.804C336.206 35.9697 336.715 36.2232 337.05 36.5646C337.384 36.9027 337.552 37.3385 337.552 37.8722C337.552 38.3097 337.426 38.7008 337.174 39.0455C336.925 39.3902 336.577 39.6619 336.13 39.8608C335.683 40.0597 335.162 40.1591 334.569 40.1591C333.79 40.1591 333.145 39.9901 332.635 39.652C332.125 39.3139 331.801 38.8201 331.665 38.1705L332.779 37.892C332.885 38.303 333.086 38.6113 333.381 38.8168C333.679 39.0223 334.068 39.125 334.549 39.125C335.096 39.125 335.53 39.009 335.852 38.777C336.176 38.5417 336.339 38.2599 336.339 37.9318C336.339 37.6667 336.246 37.4446 336.06 37.2656C335.875 37.0833 335.59 36.9474 335.205 36.858L333.933 36.5597C333.233 36.3939 332.719 36.1371 332.391 35.7891C332.067 35.4377 331.904 34.9986 331.904 34.4716C331.904 34.0407 332.025 33.6596 332.267 33.3281C332.512 32.9967 332.845 32.7365 333.266 32.5476C333.691 32.3587 334.171 32.2642 334.708 32.2642C335.464 32.2642 336.057 32.4299 336.488 32.7614C336.922 33.0928 337.23 33.5303 337.413 34.0739Z" fill="#1C1C1C" fill-opacity="0.4"/>
<path d="M357.784 26.5369V43.2812H356.79V26.5369H357.784Z" fill="#1C1C1C" fill-opacity="0.2"/>
<path d="M391 35C391 36.6569 389.657 38 388 38C386.343 38 385 36.6569 385 35C385 33.3431 386.343 32 388 32C389.657 32 391 33.3431 391 35Z" fill="#1C1C1C"/>
<path d="M404.08 33H403.023C402.96 32.696 402.851 32.429 402.695 32.1989C402.541 31.9688 402.354 31.7756 402.132 31.6193C401.913 31.4602 401.67 31.3409 401.403 31.2614C401.136 31.1818 400.858 31.142 400.568 31.142C400.04 31.142 399.561 31.2756 399.132 31.5426C398.706 31.8097 398.366 32.2031 398.114 32.723C397.864 33.2429 397.739 33.8807 397.739 34.6364C397.739 35.392 397.864 36.0298 398.114 36.5497C398.366 37.0696 398.706 37.4631 399.132 37.7301C399.561 37.9972 400.04 38.1307 400.568 38.1307C400.858 38.1307 401.136 38.0909 401.403 38.0114C401.67 37.9318 401.913 37.8139 402.132 37.6577C402.354 37.4986 402.541 37.304 402.695 37.0739C402.851 36.8409 402.96 36.5739 403.023 36.2727H404.08C404 36.7187 403.855 37.1179 403.645 37.4702C403.435 37.8224 403.173 38.1222 402.861 38.3693C402.548 38.6136 402.197 38.7997 401.808 38.9276C401.422 39.0554 401.009 39.1193 400.568 39.1193C399.824 39.1193 399.162 38.9375 398.582 38.5739C398.003 38.2102 397.547 37.6932 397.214 37.0227C396.882 36.3523 396.716 35.5568 396.716 34.6364C396.716 33.7159 396.882 32.9205 397.214 32.25C397.547 31.5795 398.003 31.0625 398.582 30.6989C399.162 30.3352 399.824 30.1534 400.568 30.1534C401.009 30.1534 401.422 30.2173 401.808 30.3452C402.197 30.473 402.548 30.6605 402.861 30.9077C403.173 31.152 403.435 31.4503 403.645 31.8026C403.855 32.152 404 32.5511 404.08 33ZM409.776 36.3239V32.4545H410.782V39H409.776V37.892H409.708C409.554 38.2244 409.316 38.5071 408.992 38.7401C408.668 38.9702 408.259 39.0852 407.765 39.0852C407.355 39.0852 406.992 38.9957 406.674 38.8168C406.355 38.6349 406.105 38.3622 405.924 37.9986C405.742 37.6321 405.651 37.1705 405.651 36.6136V32.4545H406.657V36.5455C406.657 37.0227 406.79 37.4034 407.057 37.6875C407.327 37.9716 407.671 38.1136 408.088 38.1136C408.338 38.1136 408.593 38.0497 408.851 37.9219C409.113 37.794 409.331 37.598 409.507 37.3338C409.686 37.0696 409.776 36.733 409.776 36.3239ZM412.624 39V32.4545H413.595V33.4432H413.663C413.783 33.1193 413.999 32.8565 414.311 32.6548C414.624 32.4531 414.976 32.3523 415.368 32.3523C415.442 32.3523 415.534 32.3537 415.645 32.3565C415.756 32.3594 415.839 32.3636 415.896 32.3693V33.392C415.862 33.3835 415.784 33.3707 415.662 33.3537C415.543 33.3338 415.416 33.3239 415.283 33.3239C414.964 33.3239 414.68 33.3906 414.43 33.5241C414.183 33.6548 413.987 33.8366 413.842 34.0696C413.7 34.2997 413.629 34.5625 413.629 34.858V39H412.624ZM417.088 39V32.4545H418.06V33.4432H418.128C418.248 33.1193 418.463 32.8565 418.776 32.6548C419.088 32.4531 419.441 32.3523 419.833 32.3523C419.907 32.3523 419.999 32.3537 420.11 32.3565C420.221 32.3594 420.304 32.3636 420.361 32.3693V33.392C420.327 33.3835 420.249 33.3707 420.127 33.3537C420.007 33.3338 419.881 33.3239 419.748 33.3239C419.429 33.3239 419.145 33.3906 418.895 33.5241C418.648 33.6548 418.452 33.8366 418.307 34.0696C418.165 34.2997 418.094 34.5625 418.094 34.858V39H417.088ZM424.098 39.1364C423.468 39.1364 422.924 38.9972 422.466 38.7188C422.012 38.4375 421.661 38.0455 421.414 37.5426C421.169 37.0369 421.047 36.4489 421.047 35.7784C421.047 35.108 421.169 34.517 421.414 34.0057C421.661 33.4915 422.005 33.0909 422.445 32.804C422.888 32.5142 423.405 32.3693 423.996 32.3693C424.337 32.3693 424.674 32.4261 425.006 32.5398C425.338 32.6534 425.641 32.8381 425.914 33.0938C426.186 33.3466 426.404 33.6818 426.566 34.0994C426.728 34.517 426.809 35.0312 426.809 35.642V36.0682H421.763V35.1989H425.786C425.786 34.8295 425.712 34.5 425.564 34.2102C425.419 33.9205 425.212 33.6918 424.942 33.5241C424.675 33.3565 424.36 33.2727 423.996 33.2727C423.596 33.2727 423.249 33.3722 422.956 33.571C422.667 33.767 422.444 34.0227 422.287 34.3381C422.131 34.6534 422.053 34.9915 422.053 35.3523V35.9318C422.053 36.4261 422.138 36.8452 422.309 37.1889C422.482 37.5298 422.722 37.7898 423.029 37.9688C423.336 38.1449 423.692 38.233 424.098 38.233C424.363 38.233 424.601 38.196 424.814 38.1222C425.03 38.0455 425.216 37.9318 425.373 37.7812C425.529 37.6278 425.65 37.4375 425.735 37.2102L426.706 37.483C426.604 37.8125 426.432 38.1023 426.191 38.3523C425.949 38.5994 425.651 38.7926 425.296 38.9318C424.941 39.0682 424.542 39.1364 424.098 39.1364ZM429.344 35.0625V39H428.338V32.4545H429.31V33.4773H429.395C429.549 33.1449 429.782 32.8778 430.094 32.6761C430.407 32.4716 430.81 32.3693 431.304 32.3693C431.748 32.3693 432.135 32.4602 432.468 32.642C432.8 32.821 433.059 33.0938 433.243 33.4602C433.428 33.8239 433.52 34.2841 433.52 34.8409V39H432.515V34.9091C432.515 34.3949 432.381 33.9943 432.114 33.7074C431.847 33.4176 431.48 33.2727 431.015 33.2727C430.694 33.2727 430.407 33.3423 430.154 33.4815C429.904 33.6207 429.706 33.8239 429.561 34.0909C429.417 34.358 429.344 34.6818 429.344 35.0625ZM438.205 32.4545V33.3068H434.812V32.4545H438.205ZM435.801 30.8864H436.807V37.125C436.807 37.4091 436.848 37.6222 436.93 37.7642C437.016 37.9034 437.124 37.9972 437.254 38.0455C437.388 38.0909 437.528 38.1136 437.676 38.1136C437.787 38.1136 437.878 38.108 437.949 38.0966C438.02 38.0824 438.077 38.071 438.119 38.0625L438.324 38.9659C438.256 38.9915 438.161 39.017 438.038 39.0426C437.916 39.071 437.761 39.0852 437.574 39.0852C437.29 39.0852 437.011 39.0241 436.739 38.902C436.469 38.7798 436.244 38.5938 436.065 38.3438C435.889 38.0938 435.801 37.7784 435.801 37.3977V30.8864ZM444.814 39L442.428 30.2727H443.501L445.325 37.3807H445.411L447.268 30.2727H448.462L450.32 37.3807H450.405L452.229 30.2727H453.303L450.916 39H449.825L447.899 32.0455H447.831L445.905 39H444.814ZM456.618 39.1364C455.987 39.1364 455.443 38.9972 454.986 38.7188C454.531 38.4375 454.18 38.0455 453.933 37.5426C453.689 37.0369 453.567 36.4489 453.567 35.7784C453.567 35.108 453.689 34.517 453.933 34.0057C454.18 33.4915 454.524 33.0909 454.964 32.804C455.408 32.5142 455.925 32.3693 456.516 32.3693C456.857 32.3693 457.193 32.4261 457.526 32.5398C457.858 32.6534 458.161 32.8381 458.433 33.0938C458.706 33.3466 458.923 33.6818 459.085 34.0994C459.247 34.517 459.328 35.0312 459.328 35.642V36.0682H454.283V35.1989H458.305C458.305 34.8295 458.232 34.5 458.084 34.2102C457.939 33.9205 457.732 33.6918 457.462 33.5241C457.195 33.3565 456.879 33.2727 456.516 33.2727C456.115 33.2727 455.768 33.3722 455.476 33.571C455.186 33.767 454.963 34.0227 454.807 34.3381C454.651 34.6534 454.572 34.9915 454.572 35.3523V35.9318C454.572 36.4261 454.658 36.8452 454.828 37.1889C455.001 37.5298 455.241 37.7898 455.548 37.9688C455.855 38.1449 456.212 38.233 456.618 38.233C456.882 38.233 457.121 38.196 457.334 38.1222C457.55 38.0455 457.736 37.9318 457.892 37.7812C458.048 37.6278 458.169 37.4375 458.254 37.2102L459.226 37.483C459.124 37.8125 458.952 38.1023 458.71 38.3523C458.469 38.5994 458.17 38.7926 457.815 38.9318C457.46 39.0682 457.061 39.1364 456.618 39.1364ZM463.602 39.1364C462.972 39.1364 462.428 38.9972 461.97 38.7188C461.516 38.4375 461.165 38.0455 460.918 37.5426C460.673 37.0369 460.551 36.4489 460.551 35.7784C460.551 35.108 460.673 34.517 460.918 34.0057C461.165 33.4915 461.509 33.0909 461.949 32.804C462.392 32.5142 462.909 32.3693 463.5 32.3693C463.841 32.3693 464.178 32.4261 464.51 32.5398C464.842 32.6534 465.145 32.8381 465.418 33.0938C465.69 33.3466 465.908 33.6818 466.07 34.0994C466.232 34.517 466.312 35.0312 466.312 35.642V36.0682H461.267V35.1989H465.29C465.29 34.8295 465.216 34.5 465.068 34.2102C464.923 33.9205 464.716 33.6918 464.446 33.5241C464.179 33.3565 463.864 33.2727 463.5 33.2727C463.099 33.2727 462.753 33.3722 462.46 33.571C462.17 33.767 461.947 34.0227 461.791 34.3381C461.635 34.6534 461.557 34.9915 461.557 35.3523V35.9318C461.557 36.4261 461.642 36.8452 461.812 37.1889C461.986 37.5298 462.226 37.7898 462.533 37.9688C462.839 38.1449 463.196 38.233 463.602 38.233C463.866 38.233 464.105 38.196 464.318 38.1222C464.534 38.0455 464.72 37.9318 464.876 37.7812C465.033 37.6278 465.153 37.4375 465.239 37.2102L466.21 37.483C466.108 37.8125 465.936 38.1023 465.695 38.3523C465.453 38.5994 465.155 38.7926 464.8 38.9318C464.445 39.0682 464.045 39.1364 463.602 39.1364ZM468.78 36.6136L468.763 35.3693H468.967L471.831 32.4545H473.075L470.024 35.5398H469.939L468.78 36.6136ZM467.842 39V30.2727H468.848V39H467.842ZM472.001 39L469.445 35.7614L470.161 35.0625L473.28 39H472.001Z" fill="#1C1C1C"/>
<path d="M513 35C513 36.6569 511.657 38 510 38C508.343 38 507 36.6569 507 35C507 33.3431 508.343 32 510 32C511.657 32 513 33.3431 513 35Z" fill="#A8C5DA"/>
<path d="M519.057 39V30.2727H522.006C522.69 30.2727 523.25 30.3963 523.685 30.6435C524.122 30.8878 524.446 31.2188 524.656 31.6364C524.866 32.054 524.972 32.5199 524.972 33.0341C524.972 33.5483 524.866 34.0156 524.656 34.4361C524.449 34.8565 524.128 35.1918 523.693 35.4418C523.259 35.6889 522.702 35.8125 522.023 35.8125H519.909V34.875H521.989C522.457 34.875 522.834 34.794 523.118 34.6321C523.402 34.4702 523.608 34.2514 523.736 33.9759C523.866 33.6974 523.932 33.3835 523.932 33.0341C523.932 32.6847 523.866 32.3722 523.736 32.0966C523.608 31.821 523.401 31.6051 523.114 31.4489C522.827 31.2898 522.446 31.2102 521.972 31.2102H520.114V39H519.057ZM526.538 39V32.4545H527.509V33.4432H527.577C527.697 33.1193 527.913 32.8565 528.225 32.6548C528.538 32.4531 528.89 32.3523 529.282 32.3523C529.356 32.3523 529.448 32.3537 529.559 32.3565C529.67 32.3594 529.754 32.3636 529.81 32.3693V33.392C529.776 33.3835 529.698 33.3707 529.576 33.3537C529.457 33.3338 529.33 33.3239 529.197 33.3239C528.879 33.3239 528.594 33.3906 528.344 33.5241C528.097 33.6548 527.901 33.8366 527.756 34.0696C527.614 34.2997 527.543 34.5625 527.543 34.858V39H526.538ZM533.548 39.1364C532.917 39.1364 532.373 38.9972 531.915 38.7188C531.461 38.4375 531.11 38.0455 530.863 37.5426C530.619 37.0369 530.496 36.4489 530.496 35.7784C530.496 35.108 530.619 34.517 530.863 34.0057C531.11 33.4915 531.454 33.0909 531.894 32.804C532.337 32.5142 532.854 32.3693 533.445 32.3693C533.786 32.3693 534.123 32.4261 534.455 32.5398C534.788 32.6534 535.09 32.8381 535.363 33.0938C535.636 33.3466 535.853 33.6818 536.015 34.0994C536.177 34.517 536.258 35.0312 536.258 35.642V36.0682H531.212V35.1989H535.235C535.235 34.8295 535.161 34.5 535.013 34.2102C534.869 33.9205 534.661 33.6918 534.391 33.5241C534.124 33.3565 533.809 33.2727 533.445 33.2727C533.045 33.2727 532.698 33.3722 532.406 33.571C532.116 33.767 531.893 34.0227 531.737 34.3381C531.58 34.6534 531.502 34.9915 531.502 35.3523V35.9318C531.502 36.4261 531.587 36.8452 531.758 37.1889C531.931 37.5298 532.171 37.7898 532.478 37.9688C532.785 38.1449 533.141 38.233 533.548 38.233C533.812 38.233 534.05 38.196 534.263 38.1222C534.479 38.0455 534.665 37.9318 534.822 37.7812C534.978 37.6278 535.099 37.4375 535.184 37.2102L536.156 37.483C536.053 37.8125 535.881 38.1023 535.64 38.3523C535.398 38.5994 535.1 38.7926 534.745 38.9318C534.39 39.0682 533.991 39.1364 533.548 39.1364ZM542.941 32.4545L540.52 39H539.498L537.077 32.4545H538.168L539.975 37.6705H540.043L541.85 32.4545H542.941ZM544.268 39V32.4545H545.274V39H544.268ZM544.779 31.3636C544.583 31.3636 544.414 31.2969 544.272 31.1634C544.133 31.0298 544.064 30.8693 544.064 30.6818C544.064 30.4943 544.133 30.3338 544.272 30.2003C544.414 30.0668 544.583 30 544.779 30C544.975 30 545.143 30.0668 545.282 30.2003C545.424 30.3338 545.495 30.4943 545.495 30.6818C545.495 30.8693 545.424 31.0298 545.282 31.1634C545.143 31.2969 544.975 31.3636 544.779 31.3636ZM549.775 39.1364C549.184 39.1364 548.665 38.9957 548.219 38.7145C547.776 38.4332 547.43 38.0398 547.18 37.5341C546.933 37.0284 546.809 36.4375 546.809 35.7614C546.809 35.0795 546.933 34.4844 547.18 33.9759C547.43 33.4673 547.776 33.0724 548.219 32.7912C548.665 32.5099 549.184 32.3693 549.775 32.3693C550.366 32.3693 550.883 32.5099 551.326 32.7912C551.772 33.0724 552.119 33.4673 552.366 33.9759C552.616 34.4844 552.741 35.0795 552.741 35.7614C552.741 36.4375 552.616 37.0284 552.366 37.5341C552.119 38.0398 551.772 38.4332 551.326 38.7145C550.883 38.9957 550.366 39.1364 549.775 39.1364ZM549.775 38.233C550.224 38.233 550.593 38.1179 550.883 37.8878C551.173 37.6577 551.387 37.3551 551.526 36.9801C551.665 36.6051 551.735 36.1989 551.735 35.7614C551.735 35.3239 551.665 34.9162 551.526 34.5384C551.387 34.1605 551.173 33.8551 550.883 33.6222C550.593 33.3892 550.224 33.2727 549.775 33.2727C549.326 33.2727 548.957 33.3892 548.667 33.6222C548.377 33.8551 548.163 34.1605 548.023 34.5384C547.884 34.9162 547.815 35.3239 547.815 35.7614C547.815 36.1989 547.884 36.6051 548.023 36.9801C548.163 37.3551 548.377 37.6577 548.667 37.8878C548.957 38.1179 549.326 38.233 549.775 38.233ZM558.401 36.3239V32.4545H559.407V39H558.401V37.892H558.333C558.179 38.2244 557.941 38.5071 557.617 38.7401C557.293 38.9702 556.884 39.0852 556.39 39.0852C555.98 39.0852 555.617 38.9957 555.299 38.8168C554.98 38.6349 554.73 38.3622 554.549 37.9986C554.367 37.6321 554.276 37.1705 554.276 36.6136V32.4545H555.282V36.5455C555.282 37.0227 555.415 37.4034 555.682 37.6875C555.952 37.9716 556.296 38.1136 556.713 38.1136C556.963 38.1136 557.218 38.0497 557.476 37.9219C557.738 37.794 557.956 37.598 558.132 37.3338C558.311 37.0696 558.401 36.733 558.401 36.3239ZM565.885 33.9205L564.982 34.1761C564.925 34.0256 564.841 33.8793 564.73 33.7372C564.622 33.5923 564.474 33.473 564.287 33.3793C564.099 33.2855 563.859 33.2386 563.567 33.2386C563.166 33.2386 562.832 33.331 562.565 33.5156C562.301 33.6974 562.169 33.929 562.169 34.2102C562.169 34.4602 562.26 34.6577 562.442 34.8026C562.624 34.9474 562.908 35.0682 563.294 35.1648L564.266 35.4034C564.851 35.5455 565.287 35.7628 565.574 36.0554C565.861 36.3452 566.004 36.7187 566.004 37.1761C566.004 37.5511 565.896 37.8864 565.68 38.1818C565.467 38.4773 565.169 38.7102 564.786 38.8807C564.402 39.0511 563.956 39.1364 563.447 39.1364C562.78 39.1364 562.227 38.9915 561.79 38.7017C561.352 38.4119 561.075 37.9886 560.959 37.4318L561.913 37.1932C562.004 37.5455 562.176 37.8097 562.429 37.9858C562.685 38.1619 563.018 38.25 563.43 38.25C563.899 38.25 564.271 38.1506 564.547 37.9517C564.825 37.75 564.964 37.5085 564.964 37.2273C564.964 37 564.885 36.8097 564.726 36.6562C564.567 36.5 564.322 36.3835 563.993 36.3068L562.902 36.0511C562.303 35.9091 561.862 35.6889 561.581 35.3906C561.303 35.0895 561.163 34.7131 561.163 34.2614C561.163 33.892 561.267 33.5653 561.474 33.2812C561.685 32.9972 561.97 32.7741 562.331 32.6122C562.695 32.4503 563.107 32.3693 563.567 32.3693C564.214 32.3693 564.723 32.5114 565.092 32.7955C565.464 33.0795 565.729 33.4545 565.885 33.9205ZM572.615 39L570.228 30.2727H571.302L573.126 37.3807H573.211L575.069 30.2727H576.262L578.12 37.3807H578.206L580.029 30.2727H581.103L578.717 39H577.626L575.7 32.0455H575.632L573.706 39H572.615ZM584.419 39.1364C583.788 39.1364 583.244 38.9972 582.787 38.7188C582.332 38.4375 581.981 38.0455 581.734 37.5426C581.49 37.0369 581.368 36.4489 581.368 35.7784C581.368 35.108 581.49 34.517 581.734 34.0057C581.981 33.4915 582.325 33.0909 582.765 32.804C583.208 32.5142 583.725 32.3693 584.316 32.3693C584.657 32.3693 584.994 32.4261 585.326 32.5398C585.659 32.6534 585.961 32.8381 586.234 33.0938C586.507 33.3466 586.724 33.6818 586.886 34.0994C587.048 34.517 587.129 35.0312 587.129 35.642V36.0682H582.083V35.1989H586.106C586.106 34.8295 586.032 34.5 585.885 34.2102C585.74 33.9205 585.532 33.6918 585.262 33.5241C584.995 33.3565 584.68 33.2727 584.316 33.2727C583.916 33.2727 583.569 33.3722 583.277 33.571C582.987 33.767 582.764 34.0227 582.608 34.3381C582.451 34.6534 582.373 34.9915 582.373 35.3523V35.9318C582.373 36.4261 582.458 36.8452 582.629 37.1889C582.802 37.5298 583.042 37.7898 583.349 37.9688C583.656 38.1449 584.012 38.233 584.419 38.233C584.683 38.233 584.922 38.196 585.135 38.1222C585.35 38.0455 585.537 37.9318 585.693 37.7812C585.849 37.6278 585.97 37.4375 586.055 37.2102L587.027 37.483C586.924 37.8125 586.752 38.1023 586.511 38.3523C586.27 38.5994 585.971 38.7926 585.616 38.9318C585.261 39.0682 584.862 39.1364 584.419 39.1364ZM591.403 39.1364C590.772 39.1364 590.228 38.9972 589.771 38.7188C589.316 38.4375 588.966 38.0455 588.718 37.5426C588.474 37.0369 588.352 36.4489 588.352 35.7784C588.352 35.108 588.474 34.517 588.718 34.0057C588.966 33.4915 589.309 33.0909 589.75 32.804C590.193 32.5142 590.71 32.3693 591.301 32.3693C591.642 32.3693 591.978 32.4261 592.311 32.5398C592.643 32.6534 592.946 32.8381 593.218 33.0938C593.491 33.3466 593.708 33.6818 593.87 34.0994C594.032 34.517 594.113 35.0312 594.113 35.642V36.0682H589.068V35.1989H593.091C593.091 34.8295 593.017 34.5 592.869 34.2102C592.724 33.9205 592.517 33.6918 592.247 33.5241C591.98 33.3565 591.664 33.2727 591.301 33.2727C590.9 33.2727 590.554 33.3722 590.261 33.571C589.971 33.767 589.748 34.0227 589.592 34.3381C589.436 34.6534 589.358 34.9915 589.358 35.3523V35.9318C589.358 36.4261 589.443 36.8452 589.613 37.1889C589.787 37.5298 590.027 37.7898 590.333 37.9688C590.64 38.1449 590.997 38.233 591.403 38.233C591.667 38.233 591.906 38.196 592.119 38.1222C592.335 38.0455 592.521 37.9318 592.677 37.7812C592.833 37.6278 592.954 37.4375 593.039 37.2102L594.011 37.483C593.909 37.8125 593.737 38.1023 593.495 38.3523C593.254 38.5994 592.956 38.7926 592.6 38.9318C592.245 39.0682 591.846 39.1364 591.403 39.1364ZM596.581 36.6136L596.564 35.3693H596.768L599.632 32.4545H600.876L597.825 35.5398H597.74L596.581 36.6136ZM595.643 39V30.2727H596.649V39H595.643ZM599.802 39L597.245 35.7614L597.961 35.0625L601.081 39H599.802Z" fill="#1C1C1C"/>
<path d="M25.0561 72.8182H26.13C26.1612 73.1136 26.2621 73.3636 26.4325 73.5682C26.6058 73.7699 26.8303 73.9233 27.1058 74.0284C27.3814 74.1307 27.6868 74.1818 28.022 74.1818C28.3857 74.1818 28.7124 74.1207 29.0021 73.9986C29.2919 73.8764 29.522 73.6946 29.6925 73.4531C29.8629 73.2088 29.9482 72.9062 29.9482 72.5455C29.9482 72.2301 29.8743 71.9375 29.7266 71.6676C29.5788 71.3949 29.3416 71.1747 29.0149 71.0071C28.6882 70.8395 28.255 70.7557 27.7152 70.7557H27.0163V69.9034L29.1982 67.2784V67.2102H25.4822V66.2727H30.647V67.0398L28.3118 69.8693V69.9375C28.6868 69.9545 29.0362 70.0312 29.3601 70.1676C29.6868 70.304 29.9709 70.4886 30.2124 70.7216C30.4567 70.9545 30.647 71.2259 30.7834 71.5355C30.9197 71.8452 30.9879 72.1818 30.9879 72.5455C30.9879 73.0426 30.8601 73.4858 30.6044 73.875C30.3516 74.2614 30.0007 74.5653 29.5518 74.7869C29.1058 75.0085 28.5902 75.1193 28.005 75.1193C27.4879 75.1193 27.0121 75.0284 26.5774 74.8466C26.1428 74.6648 25.7891 74.402 25.5163 74.0582C25.2436 73.7145 25.0902 73.3011 25.0561 72.8182ZM35.5742 75.1193C34.9322 75.1193 34.3853 74.9446 33.9336 74.5952C33.4819 74.2429 33.1367 73.733 32.8981 73.0653C32.6594 72.3949 32.5401 71.5852 32.5401 70.6364C32.5401 69.6932 32.6594 68.8878 32.8981 68.2202C33.1396 67.5497 33.4862 67.0384 33.9379 66.6861C34.3924 66.331 34.9379 66.1534 35.5742 66.1534C36.2106 66.1534 36.7546 66.331 37.2063 66.6861C37.6609 67.0384 38.0075 67.5497 38.2461 68.2202C38.4876 68.8878 38.6083 69.6932 38.6083 70.6364C38.6083 71.5852 38.489 72.3949 38.2504 73.0653C38.0117 73.733 37.6665 74.2429 37.2148 74.5952C36.7631 74.9446 36.2163 75.1193 35.5742 75.1193ZM35.5742 74.1818C36.2106 74.1818 36.7049 73.875 37.0572 73.2614C37.4094 72.6477 37.5856 71.7727 37.5856 70.6364C37.5856 69.8807 37.5046 69.2372 37.3427 68.706C37.1836 68.1747 36.9535 67.7699 36.6523 67.4915C36.354 67.2131 35.9947 67.0739 35.5742 67.0739C34.9435 67.0739 34.4506 67.3849 34.0955 68.0071C33.7404 68.6264 33.5629 69.5028 33.5629 70.6364C33.5629 71.392 33.6424 72.0341 33.8015 72.5625C33.9606 73.0909 34.1893 73.4929 34.4876 73.7685C34.7887 74.044 35.1509 74.1818 35.5742 74.1818ZM40.381 66.2727H41.6424L44.6083 73.517H44.7106L47.6765 66.2727H48.9379V75H47.9492V68.3693H47.864L45.1367 75H44.1822L41.4549 68.3693H41.3697V75H40.381V66.2727Z" fill="#1C1C1C" fill-opacity="0.4"/>
<path d="M25.462 136V135.233L28.3427 132.08C28.6808 131.71 28.9592 131.389 29.1779 131.116C29.3967 130.841 29.5586 130.582 29.6637 130.341C29.7717 130.097 29.8256 129.841 29.8256 129.574C29.8256 129.267 29.7518 129.001 29.604 128.777C29.4592 128.553 29.2603 128.379 29.0075 128.257C28.7546 128.135 28.4705 128.074 28.1552 128.074C27.82 128.074 27.5273 128.143 27.2773 128.283C27.0302 128.419 26.8384 128.611 26.7021 128.858C26.5685 129.105 26.5018 129.395 26.5018 129.727H25.4961C25.4961 129.216 25.614 128.767 25.8498 128.381C26.0856 127.994 26.4066 127.693 26.8129 127.477C27.2219 127.261 27.6808 127.153 28.1893 127.153C28.7006 127.153 29.1538 127.261 29.5487 127.477C29.9435 127.693 30.2532 127.984 30.4776 128.351C30.7021 128.717 30.8143 129.125 30.8143 129.574C30.8143 129.895 30.756 130.209 30.6396 130.516C30.5259 130.82 30.3271 131.159 30.043 131.534C29.7617 131.906 29.3711 132.361 28.8711 132.898L26.9109 134.994V135.062H30.9677V136H25.462ZM35.5742 136.119C34.9322 136.119 34.3853 135.945 33.9336 135.595C33.4819 135.243 33.1367 134.733 32.8981 134.065C32.6594 133.395 32.5401 132.585 32.5401 131.636C32.5401 130.693 32.6594 129.888 32.8981 129.22C33.1396 128.55 33.4862 128.038 33.9379 127.686C34.3924 127.331 34.9379 127.153 35.5742 127.153C36.2106 127.153 36.7546 127.331 37.2063 127.686C37.6609 128.038 38.0075 128.55 38.2461 129.22C38.4876 129.888 38.6083 130.693 38.6083 131.636C38.6083 132.585 38.489 133.395 38.2504 134.065C38.0117 134.733 37.6665 135.243 37.2148 135.595C36.7631 135.945 36.2163 136.119 35.5742 136.119ZM35.5742 135.182C36.2106 135.182 36.7049 134.875 37.0572 134.261C37.4094 133.648 37.5856 132.773 37.5856 131.636C37.5856 130.881 37.5046 130.237 37.3427 129.706C37.1836 129.175 36.9535 128.77 36.6523 128.491C36.354 128.213 35.9947 128.074 35.5742 128.074C34.9435 128.074 34.4506 128.385 34.0955 129.007C33.7404 129.626 33.5629 130.503 33.5629 131.636C33.5629 132.392 33.6424 133.034 33.8015 133.562C33.9606 134.091 34.1893 134.493 34.4876 134.768C34.7887 135.044 35.1509 135.182 35.5742 135.182ZM40.381 127.273H41.6424L44.6083 134.517H44.7106L47.6765 127.273H48.9379V136H47.9492V129.369H47.864L45.1367 136H44.1822L41.4549 129.369H41.3697V136H40.381V127.273Z" fill="#1C1C1C" fill-opacity="0.4"/>
<path d="M30.2262 188.273V197H29.1694V189.807H29.1012C29.0614 189.886 28.9592 189.977 28.7944 190.08C28.6296 190.179 28.4165 190.267 28.1552 190.344C27.8938 190.418 27.5955 190.455 27.2603 190.455V189.568C27.5984 189.568 27.891 189.507 28.1381 189.385C28.3853 189.263 28.5913 189.119 28.756 188.955C28.9237 188.79 29.0501 188.641 29.1353 188.507C29.2234 188.374 29.2745 188.295 29.2887 188.273H30.2262ZM35.5742 197.119C34.9322 197.119 34.3853 196.945 33.9336 196.595C33.4819 196.243 33.1367 195.733 32.8981 195.065C32.6594 194.395 32.5401 193.585 32.5401 192.636C32.5401 191.693 32.6594 190.888 32.8981 190.22C33.1396 189.55 33.4862 189.038 33.9379 188.686C34.3924 188.331 34.9379 188.153 35.5742 188.153C36.2106 188.153 36.7546 188.331 37.2063 188.686C37.6609 189.038 38.0075 189.55 38.2461 190.22C38.4876 190.888 38.6083 191.693 38.6083 192.636C38.6083 193.585 38.489 194.395 38.2504 195.065C38.0117 195.733 37.6665 196.243 37.2148 196.595C36.7631 196.945 36.2163 197.119 35.5742 197.119ZM35.5742 196.182C36.2106 196.182 36.7049 195.875 37.0572 195.261C37.4094 194.648 37.5856 193.773 37.5856 192.636C37.5856 191.881 37.5046 191.237 37.3427 190.706C37.1836 190.175 36.9535 189.77 36.6523 189.491C36.354 189.213 35.9947 189.074 35.5742 189.074C34.9435 189.074 34.4506 189.385 34.0955 190.007C33.7404 190.626 33.5629 191.503 33.5629 192.636C33.5629 193.392 33.6424 194.034 33.8015 194.562C33.9606 195.091 34.1893 195.493 34.4876 195.768C34.7887 196.044 35.1509 196.182 35.5742 196.182ZM40.381 188.273H41.6424L44.6083 195.517H44.7106L47.6765 188.273H48.9379V197H47.9492V190.369H47.864L45.1367 197H44.1822L41.4549 190.369H41.3697V197H40.381V188.273Z" fill="#1C1C1C" fill-opacity="0.4"/>
<path d="M46.25 258.119C45.608 258.119 45.0611 257.945 44.6094 257.595C44.1577 257.243 43.8125 256.733 43.5739 256.065C43.3352 255.395 43.2159 254.585 43.2159 253.636C43.2159 252.693 43.3352 251.888 43.5739 251.22C43.8153 250.55 44.1619 250.038 44.6136 249.686C45.0682 249.331 45.6136 249.153 46.25 249.153C46.8864 249.153 47.4304 249.331 47.8821 249.686C48.3366 250.038 48.6832 250.55 48.9219 251.22C49.1634 251.888 49.2841 252.693 49.2841 253.636C49.2841 254.585 49.1648 255.395 48.9261 256.065C48.6875 256.733 48.3423 257.243 47.8906 257.595C47.4389 257.945 46.892 258.119 46.25 258.119ZM46.25 257.182C46.8864 257.182 47.3807 256.875 47.733 256.261C48.0852 255.648 48.2614 254.773 48.2614 253.636C48.2614 252.881 48.1804 252.237 48.0185 251.706C47.8594 251.175 47.6293 250.77 47.3281 250.491C47.0298 250.213 46.6705 250.074 46.25 250.074C45.6193 250.074 45.1264 250.385 44.7713 251.007C44.4162 251.626 44.2386 252.503 44.2386 253.636C44.2386 254.392 44.3182 255.034 44.4773 255.562C44.6364 256.091 44.8651 256.493 45.1634 256.768C45.4645 257.044 45.8267 257.182 46.25 257.182Z" fill="#1C1C1C" fill-opacity="0.4"/>
<line x1="66.5" y1="77.5" x2="637.5" y2="77.5" stroke="#1C1C1C" stroke-opacity="0.05" stroke-linecap="round"/>
<line x1="66.5" y1="144.167" x2="637.5" y2="144.167" stroke="#1C1C1C" stroke-opacity="0.05" stroke-linecap="round"/>
<line x1="66.5" y1="210.833" x2="637.5" y2="210.833" stroke="#1C1C1C" stroke-opacity="0.05" stroke-linecap="round"/>
<line x1="66.5" y1="277.5" x2="637.5" y2="277.5" stroke="#1C1C1C" stroke-opacity="0.2" stroke-linecap="round"/>
<path d="M100.761 292.273H101.818V298.511C101.818 299.068 101.715 299.541 101.511 299.93C101.306 300.32 101.018 300.615 100.646 300.817C100.274 301.018 99.8346 301.119 99.3289 301.119C98.8516 301.119 98.4269 301.033 98.0548 300.859C97.6826 300.683 97.39 300.433 97.1769 300.109C96.9639 299.786 96.8573 299.401 96.8573 298.955H97.8971C97.8971 299.202 97.9582 299.418 98.0803 299.602C98.2053 299.784 98.3758 299.926 98.5917 300.028C98.8076 300.131 99.0533 300.182 99.3289 300.182C99.6329 300.182 99.8914 300.118 100.104 299.99C100.318 299.862 100.479 299.675 100.59 299.428C100.704 299.178 100.761 298.872 100.761 298.511V292.273ZM106.271 301.136C105.725 301.136 105.244 300.999 104.826 300.723C104.408 300.445 104.082 300.053 103.846 299.547C103.61 299.038 103.492 298.438 103.492 297.744C103.492 297.057 103.61 296.46 103.846 295.955C104.082 295.449 104.41 295.058 104.83 294.783C105.251 294.507 105.737 294.369 106.288 294.369C106.714 294.369 107.051 294.44 107.298 294.582C107.548 294.722 107.738 294.881 107.869 295.06C108.002 295.236 108.106 295.381 108.18 295.494H108.265V294.455H109.271V301H108.299V299.994H108.18C108.106 300.114 108.001 300.264 107.864 300.446C107.728 300.625 107.533 300.786 107.281 300.928C107.028 301.067 106.691 301.136 106.271 301.136ZM106.407 300.233C106.81 300.233 107.151 300.128 107.43 299.918C107.708 299.705 107.92 299.411 108.065 299.036C108.21 298.658 108.282 298.222 108.282 297.727C108.282 297.239 108.211 296.811 108.069 296.445C107.927 296.075 107.717 295.788 107.438 295.584C107.16 295.376 106.816 295.273 106.407 295.273C105.981 295.273 105.626 295.382 105.342 295.601C105.06 295.817 104.849 296.111 104.707 296.483C104.568 296.852 104.498 297.267 104.498 297.727C104.498 298.193 104.569 298.616 104.711 298.997C104.856 299.375 105.069 299.676 105.35 299.901C105.634 300.122 105.987 300.233 106.407 300.233ZM112.258 297.062V301H111.252V294.455H112.224V295.477H112.309C112.462 295.145 112.695 294.878 113.008 294.676C113.32 294.472 113.724 294.369 114.218 294.369C114.661 294.369 115.049 294.46 115.381 294.642C115.714 294.821 115.972 295.094 116.157 295.46C116.342 295.824 116.434 296.284 116.434 296.841V301H115.428V296.909C115.428 296.395 115.295 295.994 115.028 295.707C114.761 295.418 114.394 295.273 113.928 295.273C113.607 295.273 113.32 295.342 113.068 295.482C112.818 295.621 112.62 295.824 112.475 296.091C112.33 296.358 112.258 296.682 112.258 297.062Z" fill="#1C1C1C" fill-opacity="0.4"/>
<path d="M179.128 301V292.273H184.361V293.21H180.185V296.159H183.969V297.097H180.185V301H179.128ZM188.299 301.136C187.668 301.136 187.124 300.997 186.667 300.719C186.212 300.438 185.861 300.045 185.614 299.543C185.37 299.037 185.248 298.449 185.248 297.778C185.248 297.108 185.37 296.517 185.614 296.006C185.861 295.491 186.205 295.091 186.645 294.804C187.088 294.514 187.606 294.369 188.196 294.369C188.537 294.369 188.874 294.426 189.206 294.54C189.539 294.653 189.841 294.838 190.114 295.094C190.387 295.347 190.604 295.682 190.766 296.099C190.928 296.517 191.009 297.031 191.009 297.642V298.068H185.963V297.199H189.986C189.986 296.83 189.912 296.5 189.765 296.21C189.62 295.92 189.412 295.692 189.142 295.524C188.875 295.357 188.56 295.273 188.196 295.273C187.796 295.273 187.449 295.372 187.157 295.571C186.867 295.767 186.644 296.023 186.488 296.338C186.331 296.653 186.253 296.991 186.253 297.352V297.932C186.253 298.426 186.338 298.845 186.509 299.189C186.682 299.53 186.922 299.79 187.229 299.969C187.536 300.145 187.892 300.233 188.299 300.233C188.563 300.233 188.802 300.196 189.015 300.122C189.231 300.045 189.417 299.932 189.573 299.781C189.729 299.628 189.85 299.437 189.935 299.21L190.907 299.483C190.804 299.812 190.633 300.102 190.391 300.352C190.15 300.599 189.851 300.793 189.496 300.932C189.141 301.068 188.742 301.136 188.299 301.136ZM192.675 301V292.273H193.681V295.494H193.766C193.84 295.381 193.942 295.236 194.073 295.06C194.206 294.881 194.397 294.722 194.644 294.582C194.894 294.44 195.232 294.369 195.658 294.369C196.209 294.369 196.695 294.507 197.115 294.783C197.536 295.058 197.864 295.449 198.1 295.955C198.336 296.46 198.454 297.057 198.454 297.744C198.454 298.438 198.336 299.038 198.1 299.547C197.864 300.053 197.537 300.445 197.12 300.723C196.702 300.999 196.221 301.136 195.675 301.136C195.255 301.136 194.918 301.067 194.665 300.928C194.412 300.786 194.218 300.625 194.081 300.446C193.945 300.264 193.84 300.114 193.766 299.994H193.647V301H192.675ZM193.664 297.727C193.664 298.222 193.736 298.658 193.881 299.036C194.026 299.411 194.238 299.705 194.516 299.918C194.794 300.128 195.135 300.233 195.539 300.233C195.959 300.233 196.31 300.122 196.591 299.901C196.875 299.676 197.088 299.375 197.231 298.997C197.375 298.616 197.448 298.193 197.448 297.727C197.448 297.267 197.377 296.852 197.235 296.483C197.096 296.111 196.884 295.817 196.6 295.601C196.319 295.382 195.965 295.273 195.539 295.273C195.13 295.273 194.786 295.376 194.508 295.584C194.229 295.788 194.019 296.075 193.877 296.445C193.735 296.811 193.664 297.239 193.664 297.727Z" fill="#1C1C1C" fill-opacity="0.4"/>
<path d="M260.046 292.273H261.307L264.273 299.517H264.375L267.341 292.273H268.602V301H267.614V294.369H267.529L264.801 301H263.847L261.12 294.369H261.034V301H260.046V292.273ZM273.057 301.136C272.511 301.136 272.03 300.999 271.612 300.723C271.194 300.445 270.868 300.053 270.632 299.547C270.396 299.038 270.278 298.438 270.278 297.744C270.278 297.057 270.396 296.46 270.632 295.955C270.868 295.449 271.196 295.058 271.616 294.783C272.037 294.507 272.523 294.369 273.074 294.369C273.5 294.369 273.837 294.44 274.084 294.582C274.334 294.722 274.524 294.881 274.655 295.06C274.788 295.236 274.892 295.381 274.966 295.494H275.051V294.455H276.057V301H275.085V299.994H274.966C274.892 300.114 274.787 300.264 274.65 300.446C274.514 300.625 274.319 300.786 274.067 300.928C273.814 301.067 273.477 301.136 273.057 301.136ZM273.193 300.233C273.596 300.233 273.937 300.128 274.216 299.918C274.494 299.705 274.706 299.411 274.851 299.036C274.996 298.658 275.068 298.222 275.068 297.727C275.068 297.239 274.997 296.811 274.855 296.445C274.713 296.075 274.503 295.788 274.224 295.584C273.946 295.376 273.602 295.273 273.193 295.273C272.767 295.273 272.412 295.382 272.128 295.601C271.846 295.817 271.635 296.111 271.493 296.483C271.354 296.852 271.284 297.267 271.284 297.727C271.284 298.193 271.355 298.616 271.497 298.997C271.642 299.375 271.855 299.676 272.136 299.901C272.42 300.122 272.773 300.233 273.193 300.233ZM278.038 301V294.455H279.01V295.443H279.078C279.197 295.119 279.413 294.857 279.726 294.655C280.038 294.453 280.39 294.352 280.783 294.352C280.856 294.352 280.949 294.354 281.06 294.357C281.17 294.359 281.254 294.364 281.311 294.369V295.392C281.277 295.384 281.199 295.371 281.077 295.354C280.957 295.334 280.831 295.324 280.697 295.324C280.379 295.324 280.095 295.391 279.845 295.524C279.598 295.655 279.402 295.837 279.257 296.07C279.115 296.3 279.044 296.562 279.044 296.858V301H278.038Z" fill="#1C1C1C" fill-opacity="0.4"/>
<path d="M343.471 301H342.363L345.568 292.273H346.659L349.863 301H348.755L346.148 293.653H346.079L343.471 301ZM343.88 297.591H348.346V298.528H343.88V297.591ZM351.086 303.455V294.455H352.058V295.494H352.177C352.251 295.381 352.353 295.236 352.484 295.06C352.618 294.881 352.808 294.722 353.055 294.582C353.305 294.44 353.643 294.369 354.069 294.369C354.621 294.369 355.106 294.507 355.527 294.783C355.947 295.058 356.275 295.449 356.511 295.955C356.747 296.46 356.865 297.057 356.865 297.744C356.865 298.438 356.747 299.038 356.511 299.547C356.275 300.053 355.949 300.445 355.531 300.723C355.113 300.999 354.632 301.136 354.086 301.136C353.666 301.136 353.329 301.067 353.076 300.928C352.824 300.786 352.629 300.625 352.493 300.446C352.356 300.264 352.251 300.114 352.177 299.994H352.092V303.455H351.086ZM352.075 297.727C352.075 298.222 352.148 298.658 352.292 299.036C352.437 299.411 352.649 299.705 352.927 299.918C353.206 300.128 353.547 300.233 353.95 300.233C354.371 300.233 354.721 300.122 355.003 299.901C355.287 299.676 355.5 299.375 355.642 298.997C355.787 298.616 355.859 298.193 355.859 297.727C355.859 297.267 355.788 296.852 355.646 296.483C355.507 296.111 355.295 295.817 355.011 295.601C354.73 295.382 354.376 295.273 353.95 295.273C353.541 295.273 353.197 295.376 352.919 295.584C352.64 295.788 352.43 296.075 352.288 296.445C352.146 296.811 352.075 297.239 352.075 297.727ZM358.399 301V294.455H359.371V295.443H359.439C359.558 295.119 359.774 294.857 360.086 294.655C360.399 294.453 360.751 294.352 361.143 294.352C361.217 294.352 361.309 294.354 361.42 294.357C361.531 294.359 361.615 294.364 361.672 294.369V295.392C361.638 295.384 361.559 295.371 361.437 295.354C361.318 295.334 361.192 295.324 361.058 295.324C360.74 295.324 360.456 295.391 360.206 295.524C359.959 295.655 359.763 295.837 359.618 296.07C359.476 296.3 359.405 296.562 359.405 296.858V301H358.399Z" fill="#1C1C1C" fill-opacity="0.4"/>
<path d="M422.367 292.273H423.628L426.594 299.517H426.696L429.662 292.273H430.924V301H429.935V294.369H429.85L427.122 301H426.168L423.441 294.369H423.355V301H422.367V292.273ZM435.378 301.136C434.832 301.136 434.351 300.999 433.933 300.723C433.516 300.445 433.189 300.053 432.953 299.547C432.717 299.038 432.599 298.438 432.599 297.744C432.599 297.057 432.717 296.46 432.953 295.955C433.189 295.449 433.517 295.058 433.937 294.783C434.358 294.507 434.844 294.369 435.395 294.369C435.821 294.369 436.158 294.44 436.405 294.582C436.655 294.722 436.845 294.881 436.976 295.06C437.109 295.236 437.213 295.381 437.287 295.494H437.372V294.455H438.378V301H437.406V299.994H437.287C437.213 300.114 437.108 300.264 436.972 300.446C436.835 300.625 436.641 300.786 436.388 300.928C436.135 301.067 435.798 301.136 435.378 301.136ZM435.514 300.233C435.918 300.233 436.258 300.128 436.537 299.918C436.815 299.705 437.027 299.411 437.172 299.036C437.317 298.658 437.389 298.222 437.389 297.727C437.389 297.239 437.318 296.811 437.176 296.445C437.034 296.075 436.824 295.788 436.545 295.584C436.267 295.376 435.923 295.273 435.514 295.273C435.088 295.273 434.733 295.382 434.449 295.601C434.168 295.817 433.956 296.111 433.814 296.483C433.675 296.852 433.605 297.267 433.605 297.727C433.605 298.193 433.676 298.616 433.818 298.997C433.963 299.375 434.176 299.676 434.457 299.901C434.741 300.122 435.094 300.233 435.514 300.233ZM441.007 303.455C440.837 303.455 440.685 303.44 440.551 303.412C440.418 303.386 440.325 303.361 440.274 303.335L440.53 302.449C440.774 302.511 440.99 302.534 441.178 302.517C441.365 302.5 441.531 302.416 441.676 302.266C441.824 302.118 441.959 301.878 442.081 301.545L442.268 301.034L439.848 294.455H440.939L442.746 299.67H442.814L444.621 294.455H445.712L442.933 301.955C442.808 302.293 442.653 302.572 442.469 302.794C442.284 303.018 442.07 303.185 441.825 303.293C441.584 303.401 441.311 303.455 441.007 303.455Z" fill="#1C1C1C" fill-opacity="0.4"/>
<path d="M509.572 292.273H510.629V298.511C510.629 299.068 510.527 299.541 510.322 299.93C510.118 300.32 509.829 300.615 509.457 300.817C509.085 301.018 508.646 301.119 508.141 301.119C507.663 301.119 507.239 301.033 506.866 300.859C506.494 300.683 506.202 300.433 505.989 300.109C505.775 299.786 505.669 299.401 505.669 298.955H506.709C506.709 299.202 506.77 299.418 506.892 299.602C507.017 299.784 507.187 299.926 507.403 300.028C507.619 300.131 507.865 300.182 508.141 300.182C508.445 300.182 508.703 300.118 508.916 299.99C509.129 299.862 509.291 299.675 509.402 299.428C509.516 299.178 509.572 298.872 509.572 298.511V292.273ZM516.736 298.324V294.455H517.741V301H516.736V299.892H516.668C516.514 300.224 516.275 300.507 515.952 300.74C515.628 300.97 515.219 301.085 514.724 301.085C514.315 301.085 513.952 300.996 513.633 300.817C513.315 300.635 513.065 300.362 512.883 299.999C512.702 299.632 512.611 299.17 512.611 298.614V294.455H513.616V298.545C513.616 299.023 513.75 299.403 514.017 299.688C514.287 299.972 514.631 300.114 515.048 300.114C515.298 300.114 515.552 300.05 515.811 299.922C516.072 299.794 516.291 299.598 516.467 299.334C516.646 299.07 516.736 298.733 516.736 298.324ZM520.589 297.062V301H519.583V294.455H520.555V295.477H520.64C520.794 295.145 521.027 294.878 521.339 294.676C521.652 294.472 522.055 294.369 522.549 294.369C522.992 294.369 523.38 294.46 523.713 294.642C524.045 294.821 524.304 295.094 524.488 295.46C524.673 295.824 524.765 296.284 524.765 296.841V301H523.76V296.909C523.76 296.395 523.626 295.994 523.359 295.707C523.092 295.418 522.725 295.273 522.26 295.273C521.938 295.273 521.652 295.342 521.399 295.482C521.149 295.621 520.951 295.824 520.806 296.091C520.662 296.358 520.589 296.682 520.589 297.062Z" fill="#1C1C1C" fill-opacity="0.4"/>
<path d="M593.373 292.273H594.429V298.511C594.429 299.068 594.327 299.541 594.123 299.93C593.918 300.32 593.63 300.615 593.258 300.817C592.885 301.018 592.446 301.119 591.941 301.119C591.464 301.119 591.039 301.033 590.667 300.859C590.294 300.683 590.002 300.433 589.789 300.109C589.576 299.786 589.469 299.401 589.469 298.955H590.509C590.509 299.202 590.57 299.418 590.692 299.602C590.817 299.784 590.988 299.926 591.204 300.028C591.419 300.131 591.665 300.182 591.941 300.182C592.245 300.182 592.503 300.118 592.716 299.99C592.929 299.862 593.091 299.675 593.202 299.428C593.316 299.178 593.373 298.872 593.373 298.511V292.273ZM600.536 298.324V294.455H601.542V301H600.536V299.892H600.468C600.314 300.224 600.076 300.507 599.752 300.74C599.428 300.97 599.019 301.085 598.525 301.085C598.116 301.085 597.752 300.996 597.434 300.817C597.116 300.635 596.866 300.362 596.684 299.999C596.502 299.632 596.411 299.17 596.411 298.614V294.455H597.417V298.545C597.417 299.023 597.55 299.403 597.817 299.688C598.087 299.972 598.431 300.114 598.848 300.114C599.098 300.114 599.353 300.05 599.611 299.922C599.873 299.794 600.091 299.598 600.267 299.334C600.446 299.07 600.536 298.733 600.536 298.324ZM604.389 292.273V301H603.384V292.273H604.389Z" fill="#1C1C1C" fill-opacity="0.4"/>
<mask id="mask0_98681_5203" style="mask-type:alpha" maskUnits="userSpaceOnUse" x="86" y="112" width="538" height="115">
<rect x="86.0851" y="112.976" width="537.851" height="113.169" fill="url(#paint0_radial_98681_5203)"/>
</mask>
<g mask="url(#mask0_98681_5203)">
<path opacity="0.2" d="M273.277 206.551C180.542 215.68 128.672 198.34 86.234 176.273V323.536H623.787V134.192C442.507 119.823 381.207 195.926 273.277 206.551Z" fill="#1C1C1C"/>
<path opacity="0.4" d="M299.556 165.124C189.781 124.743 108.903 188.273 86.234 210.06V323.536H623.787V112.976C508.293 160.234 497.116 237.798 299.556 165.124Z" fill="#A8C5DA"/>
</g>
<path d="M86.2341 176.273C128.672 198.34 180.542 215.68 273.277 206.551C327.142 201.248 369.393 179.636 420.74 161.102" stroke="#1C1C1C" stroke-width="3" stroke-linecap="round" stroke-linejoin="round"/>
<path d="M623.787 134.192C533.568 127.041 473.066 142.298 421.744 160.74" stroke="#1C1C1C" stroke-width="3" stroke-linecap="round" stroke-linejoin="round" stroke-dasharray="3 10"/>
<path d="M86.2341 210.06C108.903 188.273 189.782 124.743 299.556 165.124C497.116 237.798 508.293 160.234 623.787 112.976" stroke="#A8C5DA" stroke-width="3" stroke-linecap="round" stroke-linejoin="round"/>
<path d="M273.277 206.399C326.228 201.187 367.955 180.214 418.132 161.897" stroke="#1C1C1C" stroke-width="3" stroke-linecap="round" stroke-linejoin="round"/>
<path d="M235 132.8C235 128.32 235 126.079 235.872 124.368C236.639 122.863 237.863 121.639 239.368 120.872C241.079 120 243.32 120 247.8 120H295.2C299.68 120 301.921 120 303.632 120.872C305.137 121.639 306.361 122.863 307.128 124.368C308 126.079 308 128.32 308 132.8V133.2C308 137.68 308 139.921 307.128 141.632C306.361 143.137 305.137 144.361 303.632 145.128C301.921 146 299.68 146 295.2 146H247.8C243.32 146 241.079 146 239.368 145.128C237.863 144.361 236.639 143.137 235.872 141.632C235 139.921 235 137.68 235 133.2V132.8Z" fill="#1C1C1C" fill-opacity="0.8"/>
<path d="M243.767 134.818H244.841C244.872 135.114 244.973 135.364 245.143 135.568C245.317 135.77 245.541 135.923 245.817 136.028C246.092 136.131 246.398 136.182 246.733 136.182C247.097 136.182 247.423 136.121 247.713 135.999C248.003 135.876 248.233 135.695 248.403 135.453C248.574 135.209 248.659 134.906 248.659 134.545C248.659 134.23 248.585 133.937 248.438 133.668C248.29 133.395 248.053 133.175 247.726 133.007C247.399 132.839 246.966 132.756 246.426 132.756H245.727V131.903L247.909 129.278V129.21H244.193V128.273H249.358V129.04L247.023 131.869V131.938C247.398 131.955 247.747 132.031 248.071 132.168C248.398 132.304 248.682 132.489 248.923 132.722C249.168 132.955 249.358 133.226 249.494 133.536C249.631 133.845 249.699 134.182 249.699 134.545C249.699 135.043 249.571 135.486 249.315 135.875C249.063 136.261 248.712 136.565 248.263 136.787C247.817 137.009 247.301 137.119 246.716 137.119C246.199 137.119 245.723 137.028 245.288 136.847C244.854 136.665 244.5 136.402 244.227 136.058C243.955 135.714 243.801 135.301 243.767 134.818ZM252.686 135.807L252.618 136.267C252.57 136.591 252.496 136.938 252.396 137.307C252.3 137.676 252.199 138.024 252.094 138.351C251.989 138.678 251.902 138.938 251.834 139.131H251.067C251.104 138.949 251.152 138.709 251.212 138.411C251.271 138.112 251.331 137.778 251.391 137.409C251.453 137.043 251.504 136.668 251.544 136.284L251.595 135.807H252.686ZM254.532 137V136.233L257.413 133.08C257.751 132.71 258.029 132.389 258.248 132.116C258.467 131.841 258.629 131.582 258.734 131.341C258.842 131.097 258.896 130.841 258.896 130.574C258.896 130.267 258.822 130.001 258.674 129.777C258.529 129.553 258.331 129.379 258.078 129.257C257.825 129.135 257.541 129.074 257.225 129.074C256.89 129.074 256.598 129.143 256.348 129.283C256.1 129.419 255.909 129.611 255.772 129.858C255.639 130.105 255.572 130.395 255.572 130.727H254.566C254.566 130.216 254.684 129.767 254.92 129.381C255.156 128.994 255.477 128.693 255.883 128.477C256.292 128.261 256.751 128.153 257.26 128.153C257.771 128.153 258.224 128.261 258.619 128.477C259.014 128.693 259.324 128.984 259.548 129.351C259.772 129.717 259.885 130.125 259.885 130.574C259.885 130.895 259.826 131.209 259.71 131.516C259.596 131.82 259.397 132.159 259.113 132.534C258.832 132.906 258.441 133.361 257.941 133.898L255.981 135.994V136.062H260.038V137H254.532ZM264.525 137.119C264.025 137.119 263.575 137.02 263.174 136.821C262.774 136.622 262.453 136.349 262.211 136.003C261.97 135.656 261.838 135.261 261.815 134.818H262.838C262.877 135.213 263.056 135.54 263.375 135.798C263.696 136.054 264.079 136.182 264.525 136.182C264.883 136.182 265.201 136.098 265.48 135.93C265.761 135.763 265.981 135.533 266.14 135.24C266.302 134.945 266.383 134.611 266.383 134.239C266.383 133.858 266.299 133.518 266.132 133.22C265.967 132.919 265.74 132.682 265.45 132.509C265.16 132.335 264.829 132.247 264.457 132.244C264.19 132.241 263.916 132.283 263.635 132.368C263.353 132.45 263.122 132.557 262.94 132.688L261.951 132.568L262.48 128.273H267.014V129.21H263.366L263.059 131.784H263.11C263.289 131.642 263.514 131.524 263.784 131.43C264.054 131.337 264.335 131.29 264.627 131.29C265.162 131.29 265.637 131.418 266.055 131.673C266.475 131.926 266.805 132.273 267.044 132.713C267.285 133.153 267.406 133.656 267.406 134.222C267.406 134.778 267.281 135.276 267.031 135.713C266.784 136.148 266.443 136.491 266.008 136.744C265.574 136.994 265.079 137.119 264.525 137.119ZM268.894 134.239C268.9 133.966 268.941 133.683 269.018 133.391C269.094 133.098 269.224 132.773 269.406 132.415C269.587 132.057 269.837 131.642 270.156 131.17L272.116 128.273H273.275L270.974 131.631C271.076 131.597 271.181 131.568 271.289 131.545C271.4 131.523 271.511 131.511 271.621 131.511C272.15 131.511 272.621 131.634 273.036 131.878C273.454 132.122 273.782 132.456 274.021 132.879C274.262 133.303 274.383 133.784 274.383 134.324C274.383 134.864 274.263 135.344 274.025 135.764C273.789 136.185 273.464 136.516 273.049 136.757C272.637 136.999 272.167 137.119 271.638 137.119C271.104 137.119 270.63 136.996 270.215 136.749C269.8 136.499 269.475 136.158 269.239 135.726C269.004 135.291 268.888 134.795 268.894 134.239ZM269.9 134.307C269.9 134.676 269.974 135.003 270.121 135.287C270.269 135.571 270.474 135.794 270.735 135.956C270.996 136.118 271.298 136.199 271.638 136.199C271.979 136.199 272.281 136.119 272.542 135.96C272.803 135.798 273.008 135.577 273.156 135.295C273.303 135.011 273.377 134.687 273.377 134.324C273.377 133.955 273.303 133.629 273.156 133.348C273.008 133.067 272.803 132.847 272.542 132.688C272.281 132.528 271.979 132.449 271.638 132.449C271.298 132.449 270.996 132.528 270.735 132.688C270.474 132.844 270.269 133.062 270.121 133.344C269.974 133.622 269.9 133.943 269.9 134.307ZM277.506 135.807L277.438 136.267C277.39 136.591 277.316 136.938 277.217 137.307C277.12 137.676 277.019 138.024 276.914 138.351C276.809 138.678 276.722 138.938 276.654 139.131H275.887C275.924 138.949 275.972 138.709 276.032 138.411C276.092 138.112 276.151 137.778 276.211 137.409C276.273 137.043 276.325 136.668 276.364 136.284L276.415 135.807H277.506ZM281.904 137.119C281.404 137.119 280.954 137.02 280.553 136.821C280.153 136.622 279.832 136.349 279.59 136.003C279.349 135.656 279.217 135.261 279.194 134.818H280.217C280.256 135.213 280.435 135.54 280.754 135.798C281.075 136.054 281.458 136.182 281.904 136.182C282.262 136.182 282.58 136.098 282.859 135.93C283.14 135.763 283.36 135.533 283.519 135.24C283.681 134.945 283.762 134.611 283.762 134.239C283.762 133.858 283.678 133.518 283.511 133.22C283.346 132.919 283.119 132.682 282.829 132.509C282.539 132.335 282.208 132.247 281.836 132.244C281.569 132.241 281.295 132.283 281.013 132.368C280.732 132.45 280.501 132.557 280.319 132.688L279.33 132.568L279.859 128.273H284.393V129.21H280.745L280.438 131.784H280.489C280.668 131.642 280.893 131.524 281.163 131.43C281.433 131.337 281.714 131.29 282.006 131.29C282.54 131.29 283.016 131.418 283.434 131.673C283.854 131.926 284.184 132.273 284.423 132.713C284.664 133.153 284.785 133.656 284.785 134.222C284.785 134.778 284.66 135.276 284.41 135.713C284.163 136.148 283.822 136.491 283.387 136.744C282.952 136.994 282.458 137.119 281.904 137.119ZM286.273 130.949C286.273 130.409 286.391 129.929 286.627 129.509C286.865 129.088 287.191 128.757 287.603 128.516C288.017 128.274 288.489 128.153 289.017 128.153C289.551 128.153 290.026 128.278 290.441 128.528C290.855 128.776 291.181 129.116 291.417 129.551C291.652 129.983 291.767 130.477 291.762 131.034C291.756 131.307 291.715 131.589 291.638 131.882C291.561 132.175 291.432 132.5 291.25 132.858C291.069 133.216 290.819 133.631 290.5 134.102L288.54 137H287.381L289.682 133.642C289.58 133.676 289.473 133.705 289.363 133.727C289.255 133.75 289.145 133.761 289.034 133.761C288.506 133.761 288.033 133.639 287.615 133.395C287.201 133.151 286.873 132.817 286.631 132.393C286.392 131.97 286.273 131.489 286.273 130.949ZM287.279 130.949C287.279 131.318 287.353 131.643 287.5 131.925C287.648 132.206 287.853 132.426 288.114 132.585C288.375 132.744 288.676 132.824 289.017 132.824C289.358 132.824 289.659 132.746 289.921 132.589C290.182 132.43 290.387 132.212 290.534 131.933C290.682 131.652 290.756 131.33 290.756 130.966C290.756 130.597 290.682 130.27 290.534 129.986C290.387 129.702 290.182 129.479 289.921 129.317C289.659 129.155 289.358 129.074 289.017 129.074C288.676 129.074 288.375 129.155 288.114 129.317C287.853 129.476 287.648 129.697 287.5 129.982C287.353 130.263 287.279 130.585 287.279 130.949ZM296.164 137.119C295.578 137.119 295.061 137.016 294.613 136.808C294.167 136.598 293.819 136.31 293.569 135.943C293.319 135.574 293.195 135.153 293.198 134.682C293.195 134.312 293.267 133.972 293.415 133.659C293.563 133.344 293.765 133.081 294.02 132.871C294.279 132.658 294.567 132.523 294.885 132.466V132.415C294.468 132.307 294.135 132.072 293.888 131.712C293.641 131.348 293.519 130.935 293.522 130.472C293.519 130.028 293.631 129.632 293.858 129.283C294.086 128.933 294.398 128.658 294.796 128.456C295.196 128.254 295.652 128.153 296.164 128.153C296.669 128.153 297.121 128.254 297.519 128.456C297.917 128.658 298.229 128.933 298.456 129.283C298.686 129.632 298.803 130.028 298.806 130.472C298.803 130.935 298.676 131.348 298.426 131.712C298.179 132.072 297.851 132.307 297.442 132.415V132.466C297.757 132.523 298.042 132.658 298.294 132.871C298.547 133.081 298.749 133.344 298.9 133.659C299.05 133.972 299.127 134.312 299.13 134.682C299.127 135.153 298.999 135.574 298.746 135.943C298.496 136.31 298.148 136.598 297.702 136.808C297.259 137.016 296.746 137.119 296.164 137.119ZM296.164 136.182C296.559 136.182 296.9 136.118 297.186 135.99C297.473 135.862 297.695 135.682 297.851 135.449C298.007 135.216 298.087 134.943 298.09 134.631C298.087 134.301 298.002 134.01 297.834 133.757C297.667 133.504 297.438 133.305 297.148 133.161C296.861 133.016 296.533 132.943 296.164 132.943C295.792 132.943 295.459 133.016 295.167 133.161C294.877 133.305 294.648 133.504 294.48 133.757C294.316 134.01 294.235 134.301 294.238 134.631C294.235 134.943 294.31 135.216 294.463 135.449C294.62 135.682 294.843 135.862 295.132 135.99C295.422 136.118 295.766 136.182 296.164 136.182ZM296.164 132.04C296.476 132.04 296.753 131.977 296.995 131.852C297.239 131.727 297.431 131.553 297.57 131.328C297.709 131.104 297.78 130.841 297.783 130.54C297.78 130.244 297.711 129.987 297.574 129.768C297.438 129.547 297.249 129.376 297.007 129.257C296.766 129.135 296.485 129.074 296.164 129.074C295.837 129.074 295.551 129.135 295.307 129.257C295.063 129.376 294.874 129.547 294.74 129.768C294.607 129.987 294.542 130.244 294.544 130.54C294.542 130.841 294.608 131.104 294.745 131.328C294.884 131.553 295.076 131.727 295.32 131.852C295.564 131.977 295.846 132.04 296.164 132.04Z" fill="white"/>
<g filter="url(#filter1_d_98681_5203)">
<circle cx="3" cy="3" r="4.5" transform="matrix(-1 0 0 1 274.5 153)" fill="#A8C5DA" stroke="white" stroke-width="3"/>
</g>
<defs>
<filter id="filter1_d_98681_5203" x="263.5" y="150" width="16" height="16" filterUnits="userSpaceOnUse" color-interpolation-filters="sRGB">
<feFlood flood-opacity="0" result="BackgroundImageFix"/>
<feColorMatrix in="SourceAlpha" type="matrix" values="0 0 0 0 0 0 0 0 0 0 0 0 0 0 0 0 0 0 127 0" result="hardAlpha"/>
<feOffset dy="2"/>
<feGaussianBlur stdDeviation="1"/>
<feComposite in2="hardAlpha" operator="out"/>
<feColorMatrix type="matrix" values="0 0 0 0 0 0 0 0 0 0 0 0 0 0 0 0 0 0 0.1 0"/>
<feBlend mode="normal" in2="BackgroundImageFix" result="effect1_dropShadow_98681_5203"/>
<feBlend mode="normal" in="SourceGraphic" in2="effect1_dropShadow_98681_5203" result="shape"/>
</filter>
<radialGradient id="paint0_radial_98681_5203" cx="0" cy="0" r="1" gradientUnits="userSpaceOnUse" gradientTransform="translate(330.747 126.578) rotate(87.1473) scale(60.9423 239.38)">
<stop/>
<stop offset="1" stop-color="#D9D9D9" stop-opacity="0"/>
</radialGradient>
</defs>
</svg>
