<svg width="14" height="17" viewBox="0 0 14 17" fill="none" xmlns="http://www.w3.org/2000/svg">
<path d="M13.5364 5.67985C13.0156 5.99875 12.5841 6.4446 12.2824 6.97566C11.9808 7.50672 11.8188 8.10563 11.8116 8.71635C11.8137 9.4037 12.0173 10.0754 12.3974 10.6481C12.7774 11.2209 13.317 11.6696 13.9495 11.9386C13.7002 12.7432 13.3311 13.5057 12.8547 14.2004C12.1731 15.1816 11.4604 16.1627 10.376 16.1627C9.29164 16.1627 9.01274 15.5327 7.76304 15.5327C6.54434 15.5327 6.11054 16.1834 5.11904 16.1834C4.12754 16.1834 3.43564 15.2745 2.64034 14.1591C1.58981 12.5966 1.01245 10.7641 0.977539 8.88155C0.977539 5.78315 2.99154 4.14105 4.97444 4.14105C6.02794 4.14105 6.90584 4.83295 7.56684 4.83295C8.19684 4.83295 9.17804 4.09965 10.376 4.09965C10.992 4.08376 11.6024 4.21957 12.1535 4.49513C12.7047 4.77069 13.1796 5.17754 13.5364 5.67985ZM9.80804 2.78805C10.3361 2.16681 10.6351 1.38317 10.6549 0.568047C10.6558 0.460589 10.6454 0.353335 10.6239 0.248047C9.7168 0.336661 8.87794 0.769021 8.27944 1.45645C7.74625 2.05293 7.43604 2.81564 7.40154 3.61495C7.40194 3.71215 7.41233 3.80906 7.43254 3.90415C7.50405 3.91767 7.57666 3.92459 7.64944 3.92485C8.06751 3.89158 8.47446 3.77365 8.84554 3.57823C9.21662 3.3828 9.54408 3.11396 9.80804 2.78805Z" fill="black" fill-opacity="0.8"/>
</svg>
