<svg width="15" height="44" viewBox="0 0 15 44" fill="none" xmlns="http://www.w3.org/2000/svg">
<g clip-path="url(#clip0_8002_2604)">
<path d="M11.6467 16.0256H10.6262C10.5168 15.2146 10.1205 14.4696 9.50903 13.9257C8.89758 13.3818 8.11148 13.0749 7.29324 13.0608C6.475 13.0749 5.68891 13.3818 5.07745 13.9257C4.466 14.4696 4.06964 15.2146 3.96024 16.0256H2.94024C2.37903 16.026 1.8409 16.249 1.44399 16.6458C1.04708 17.0425 0.823825 17.5806 0.823242 18.1418V25.8573C0.823745 26.4184 1.04685 26.9565 1.44359 27.3533C1.84033 27.7501 2.3783 27.9734 2.93944 27.974H11.6464C12.2077 27.9735 12.7458 27.7504 13.1427 27.3535C13.5396 26.9567 13.7627 26.4185 13.7632 25.8573V18.1418C13.7627 17.5807 13.5395 17.0427 13.1427 16.6459C12.7459 16.2492 12.2079 16.0261 11.6467 16.0256ZM7.29324 14.1604C7.82065 14.1719 8.32836 14.363 8.73243 14.7021C9.13649 15.0413 9.41272 15.5082 9.51544 16.0256H5.07104C5.17377 15.5082 5.44999 15.0413 5.85406 14.7021C6.25812 14.363 6.76583 14.1719 7.29324 14.1604ZM12.6632 25.8573C12.663 26.1269 12.5558 26.3853 12.3652 26.576C12.1746 26.7667 11.9162 26.874 11.6466 26.8744H2.93974C2.67018 26.8739 2.4118 26.7666 2.22125 26.576C2.0307 26.3853 1.92353 26.1269 1.92324 25.8573V18.1418C1.92356 17.8723 2.03077 17.6139 2.22135 17.4233C2.41193 17.2327 2.67032 17.1255 2.93984 17.1252H11.6468C11.9163 17.1256 12.1747 17.2328 12.3652 17.4234C12.5557 17.6139 12.6629 17.8723 12.6632 18.1418V25.8573Z" fill="black" fill-opacity="0.8"/>
</g>
<defs>
<clipPath id="clip0_8002_2604">
<rect width="14" height="44" fill="white" transform="translate(0.292969 -0.00268555)"/>
</clipPath>
</defs>
</svg>
