<svg width="60" height="15" viewBox="0 0 60 15" fill="none" xmlns="http://www.w3.org/2000/svg">
<path d="M25.2021 14.0088V4.65279H25.1412L21.3092 14.0088H19.8474L16.0032 4.65279H15.9423V14.0088H14.1446V1.29633H16.4261L20.54 11.4266H20.6113L24.7165 1.29633H27.0067V14.0088H25.2021ZM36.9452 14.0088H35.1214V12.441H35.0779C34.5663 13.5511 33.6248 14.1758 32.2065 14.1758C30.1896 14.1758 28.9558 12.8638 28.9558 10.7393V4.73979H30.8596V10.3687C30.8596 11.7781 31.5296 12.535 32.8417 12.535C34.2165 12.535 35.0449 11.5832 35.0449 10.139V4.73979H36.9487L36.9452 14.0088ZM42.1607 4.57275C44.3186 4.57275 45.7195 5.77161 45.7821 7.48029H43.9932C43.887 6.58245 43.2275 6.01869 42.1607 6.01869C41.1305 6.01869 40.4431 6.52155 40.4431 7.26105C40.4431 7.84221 40.8659 8.23893 41.8701 8.46861L43.3771 8.81139C45.2722 9.25161 45.9944 9.99111 45.9944 11.3309C45.9944 13.0222 44.4178 14.1845 42.232 14.1845C39.914 14.1845 38.5218 13.0483 38.3461 11.2857H40.2325C40.4083 12.2548 41.0696 12.7299 42.232 12.7299C43.3771 12.7299 44.0819 12.2548 44.0819 11.4962C44.0819 10.8976 43.7391 10.5444 42.7245 10.3147L41.2175 9.96327C39.4546 9.55785 38.5828 8.71221 38.5828 7.36371C38.5828 5.70897 40.0289 4.57275 42.1607 4.57275ZM47.324 2.30031C47.3118 1.68957 47.7973 1.18497 48.4081 1.17279C49.019 1.16061 49.5236 1.64607 49.5358 2.25681C49.548 2.86755 49.0625 3.37215 48.4516 3.38433C48.4429 3.38433 48.4342 3.38433 48.4255 3.38433C47.8217 3.38781 47.3292 2.90409 47.324 2.30031ZM47.4736 4.73979H49.3774V14.007H47.4736V4.73979ZM57.4104 7.92921C57.2172 6.94263 56.4759 6.15789 55.2351 6.15789C53.7628 6.15789 52.7953 7.38285 52.7953 9.37341C52.7953 11.4092 53.7733 12.5889 55.2542 12.5889C56.4254 12.5889 57.1929 11.9451 57.4121 10.8715H59.2446C59.041 12.8447 57.4643 14.1845 55.2351 14.1845C52.583 14.1845 50.8567 12.3697 50.8567 9.37515C50.8567 6.43281 52.583 4.57449 55.2177 4.57449C57.6053 4.57449 59.0584 6.10743 59.2272 7.93095L57.4104 7.92921ZM8.10076 2.53695C8.61587 1.92099 8.87168 1.12929 8.81425 0.327148C8.02419 0.401968 7.29329 0.779548 6.77643 1.38159C6.33441 1.89141 5.9446 2.72313 6.04554 3.50613C6.8269 3.57399 7.60827 3.11463 8.10076 2.53695ZM8.80381 3.65751C7.66918 3.58965 6.70335 4.30131 6.16213 4.30131C5.61918 4.30131 4.78908 3.69057 3.89286 3.70797C2.70428 3.73755 1.62185 4.39527 1.04757 5.43579C-0.172333 7.53771 0.72563 10.6558 1.91247 12.3662C2.48849 13.2136 3.18284 14.1462 4.09647 14.1114C4.96137 14.0784 5.29897 13.5511 6.35008 13.5511C7.39944 13.5511 7.70398 14.1114 8.61935 14.094C9.56778 14.0766 10.1612 13.2466 10.7372 12.3993C11.1462 11.799 11.4646 11.143 11.6856 10.4505C11.6682 10.4331 9.85666 9.73881 9.83925 7.65429C9.82185 5.90907 11.2628 5.07909 11.3289 5.02689C10.5162 3.82803 9.24583 3.69231 8.80381 3.65751Z" fill="white"/>
</svg>
