<svg width="14" height="14" viewBox="0 0 14 14" fill="none" xmlns="http://www.w3.org/2000/svg">
<path d="M6.08398 1.82928L6.69102 1.22225C6.94805 0.965222 7.36367 0.965222 7.61797 1.22225L12.9336 6.53514C13.1906 6.79218 13.1906 7.2078 12.9336 7.4621L7.61797 12.7777C7.36094 13.0348 6.94531 13.0348 6.69102 12.7777L6.08398 12.1707C5.82422 11.9109 5.82969 11.4871 6.09492 11.2328L9.38984 8.09374H1.53125C1.16758 8.09374 0.875 7.80116 0.875 7.43749V6.56249C0.875 6.19882 1.16758 5.90624 1.53125 5.90624H9.38984L6.09492 2.76718C5.82695 2.51288 5.82148 2.08905 6.08398 1.82928Z" fill="#5C5C5C"/>
</svg>
